<?xml version="1.0" standalone="no"?>
<!DOCTYPE svg PUBLIC "-//W3C//DTD SVG 20010904//EN"
 "http://www.w3.org/TR/2001/REC-SVG-20010904/DTD/svg10.dtd">
<svg version="1.0" xmlns="http://www.w3.org/2000/svg"
 width="460.000000pt" height="460.000000pt" viewBox="0 0 460.000000 460.000000"
 preserveAspectRatio="xMidYMid meet">
<metadata>
Created by potrace 1.11, written by Peter Selinger 2001-2013
</metadata>
<g transform="translate(0.000000,460.000000) scale(0.100000,-0.100000)"
fill="#000000" stroke="none">
<path d="M0 4286 c1 -237 4 -316 13 -319 9 -4 9 -7 -1 -18 -6 -7 -12 -26 -12
-42 0 -26 2 -28 17 -16 13 11 17 11 20 2 3 -7 18 -13 34 -13 20 0 29 -5 29
-16 0 -13 -3 -14 -15 -4 -12 10 -13 7 -5 -22 6 -18 10 -34 10 -36 0 -2 4 -1 9
2 5 4 7 -3 4 -14 -3 -11 0 -62 6 -113 23 -184 21 -170 36 -417 3 -58 8 -127
11 -155 2 -27 11 -167 19 -310 8 -143 18 -290 21 -327 l7 -68 -27 0 c-29 0
-30 -3 -17 -102 4 -32 5 -58 3 -58 -3 0 -13 10 -23 22 -11 11 -19 19 -20 17 0
-2 -2 -15 -4 -29 -10 -57 -12 -64 -25 -68 -7 -3 -10 -1 -7 4 3 5 0 22 -7 39
-8 19 -15 25 -20 17 -4 -7 -2 -12 6 -12 9 0 9 -3 -2 -10 -8 -5 -16 -14 -16
-20 -1 -5 -2 -14 -3 -20 0 -5 -10 -10 -21 -10 -20 0 -20 -7 -20 -331 l0 -331
82 6 c98 8 131 15 140 30 5 7 12 4 21 -8 10 -13 17 -63 21 -150 7 -120 16
-230 32 -393 5 -44 3 -63 -4 -63 -7 0 -9 11 -5 30 5 29 -8 42 -22 20 -13 -21
-23 -9 -12 14 7 13 15 22 19 20 5 -3 8 10 7 28 0 18 -3 28 -5 21 -3 -7 -11
-10 -19 -7 -8 3 -20 -4 -27 -15 -15 -24 -28 -27 -28 -6 0 10 -10 14 -35 13
-22 -1 -35 -6 -35 -15 0 -7 7 -13 15 -13 8 0 15 -6 16 -12 0 -7 4 -4 9 7 7 17
9 17 9 3 1 -27 46 -23 59 5 10 21 10 21 8 -5 -2 -15 -10 -36 -20 -47 -13 -15
-14 -20 -4 -24 7 -2 10 -8 6 -12 -4 -4 -13 -3 -20 2 -7 6 -30 13 -51 17 -21 4
-35 11 -32 16 3 5 12 7 20 4 8 -3 19 -3 25 1 12 7 -33 36 -54 34 -6 0 -2 -4 9
-9 12 -5 14 -9 6 -9 -8 -1 -25 -11 -38 -23 -16 -15 -26 -19 -34 -11 -12 12
-59 5 -59 -9 0 -5 9 -6 20 -3 11 4 20 2 20 -4 0 -6 -7 -11 -16 -11 -8 0 -13
-4 -10 -9 4 -5 0 -12 -6 -14 -8 -4 -7 -6 4 -6 9 -1 24 -4 33 -7 13 -5 15 -2 9
20 -6 25 8 37 21 16 3 -5 12 -7 19 -4 8 3 17 1 21 -5 3 -6 0 -9 -8 -6 -7 3
-22 -3 -32 -15 -10 -11 -31 -20 -47 -20 -27 0 -28 -2 -28 -45 0 -44 0 -45 33
-45 25 0 37 -6 46 -22 10 -22 11 -22 6 -2 -4 14 0 24 10 28 8 3 15 2 15 -3 0
-5 10 -12 22 -16 14 -4 18 -8 10 -12 -6 -2 -12 -9 -12 -15 0 -6 6 -6 15 2 18
15 20 50 3 51 -7 0 0 5 16 10 35 10 39 8 30 -15 -5 -14 -9 -15 -16 -4 -6 8 -7
2 -3 -19 5 -26 3 -33 -9 -33 -8 0 -18 -9 -21 -20 -4 -11 -12 -20 -18 -18 -7 1
-23 -2 -36 -6 -13 -5 -27 -4 -33 2 -7 7 0 12 20 17 18 3 32 14 35 26 5 19 -3
25 -17 12 -4 -4 -27 -6 -51 -4 l-45 3 0 -167 0 -166 23 6 c42 12 65 27 61 40
-3 7 0 16 6 20 8 5 10 -2 8 -21 -2 -18 -8 -28 -16 -26 -8 1 -11 -2 -7 -8 10
-17 -5 -52 -18 -42 -7 4 -21 8 -32 8 -19 -1 -20 -8 -20 -196 l0 -195 99 -2
c83 -1 102 1 114 15 13 16 13 16 8 -1 -3 -9 -1 -17 4 -17 6 0 10 7 10 15 0 9
7 18 15 21 8 4 15 17 15 29 0 54 56 70 123 36 20 -10 48 -22 62 -25 20 -5 23
-3 18 11 -5 15 -3 16 8 5 7 -6 20 -12 28 -12 13 0 14 2 2 9 -18 12 -6 30 31
46 28 11 28 13 9 18 -12 3 -21 1 -21 -4 0 -5 -4 -9 -10 -9 -5 0 -9 3 -9 7 1 5
0 10 -1 13 -7 19 -7 40 1 40 4 0 6 8 3 18 -4 13 -3 14 4 4 5 -8 12 -13 16 -13
32 4 66 -2 82 -15 19 -15 19 -16 -1 -8 -39 14 -83 13 -90 -3 -3 -9 -3 -18 0
-21 3 -3 5 1 5 9 0 8 3 10 8 4 9 -13 93 -55 110 -55 6 0 12 -5 12 -12 0 -19
103 -107 124 -108 19 0 19 1 -2 20 -12 11 -25 20 -30 20 -5 0 -17 9 -26 19
-13 14 -14 21 -5 27 8 4 10 3 5 -4 -4 -7 -3 -12 3 -12 5 0 36 -15 67 -34 l57
-35 293 0 294 -1 0 45 c0 24 7 64 14 87 8 24 24 83 35 133 12 50 29 115 39
145 11 30 20 82 21 115 1 33 6 76 11 95 16 64 23 180 11 180 -6 0 -11 5 -11
11 0 5 4 8 9 4 5 -3 12 -1 16 5 3 5 1 10 -4 10 -6 0 -11 7 -11 15 0 11 -12 15
-44 15 -37 0 -45 4 -49 22 -4 12 -4 24 -1 27 3 3 7 -4 10 -15 6 -24 38 -29 55
-8 6 8 18 14 25 14 20 0 17 17 -3 25 -12 4 -23 -1 -34 -13 -15 -19 -16 -19
-35 4 -10 13 -25 23 -31 24 -19 0 -16 20 3 20 9 0 18 -9 21 -21 4 -12 11 -18
20 -15 8 3 17 6 19 6 2 0 4 5 4 11 0 5 -5 7 -10 4 -5 -3 -10 1 -10 9 0 21 27
20 38 -1 9 -16 12 -16 36 0 14 10 26 23 26 29 0 6 -3 8 -7 5 -12 -13 -30 37
-20 57 7 15 11 16 18 5 7 -11 9 -11 9 -1 0 7 -6 15 -13 17 -13 6 -20 95 -7 95
4 0 7 -16 5 -35 -3 -45 7 -45 21 0 8 25 8 37 0 45 -8 9 -6 11 9 8 26 -4 75 79
54 92 -7 5 -16 7 -20 4 -4 -2 -10 0 -13 5 -4 5 -21 8 -39 6 -23 -3 -28 -2 -17
5 8 5 33 9 56 8 46 -1 65 7 59 25 -2 7 -6 74 -10 151 -6 126 -5 138 10 132 27
-10 33 2 24 45 -5 22 -6 46 -2 52 4 7 6 22 4 35 -1 12 2 22 8 22 15 0 24 -38
22 -100 l-1 -56 93 8 c159 12 157 11 158 66 0 26 3 41 6 35 2 -7 10 -13 16
-13 5 0 7 3 4 7 -4 3 -2 11 3 18 7 8 1 10 -23 7 -28 -4 -30 -3 -15 9 14 12 17
31 14 129 -2 63 -4 162 -5 219 -1 87 -3 102 -16 97 -10 -4 -15 1 -15 14 0 11
-5 20 -10 20 -6 0 -9 -6 -8 -12 2 -8 -8 -13 -24 -13 -16 1 -28 -3 -28 -7 0 -4
-9 -8 -20 -8 -11 0 -20 5 -20 12 0 9 -3 9 -12 0 -7 -7 -20 -12 -30 -12 -10 0
-18 -4 -18 -9 0 -5 -9 -11 -20 -14 -16 -4 -18 -2 -11 10 5 9 3 25 -3 39 -12
27 -26 32 -26 9 0 -8 5 -15 10 -15 6 0 10 -4 10 -10 0 -5 -7 -10 -15 -10 -8 0
-15 -5 -15 -11 0 -8 -4 -8 -15 1 -8 6 -18 9 -24 6 -5 -3 -11 1 -15 9 -3 9 0
15 10 15 11 0 8 7 -10 23 -23 21 -25 30 -28 140 -3 92 -1 117 9 117 7 0 13 9
13 20 0 26 43 28 62 3 7 -10 21 -18 31 -19 50 -2 52 -4 65 -56 13 -56 26 -70
58 -65 17 3 25 -7 44 -55 13 -32 40 -76 61 -99 l38 -41 7 -181 c3 -100 11
-190 16 -200 5 -10 7 -21 4 -24 -3 -3 2 -12 12 -19 16 -13 16 -13 0 -14 -14 0
-16 -4 -8 -22 5 -13 11 -35 14 -50 4 -16 12 -28 20 -28 13 0 26 -97 26 -203 0
-40 -3 -48 -16 -43 -9 3 -12 2 -8 -5 3 -6 -4 -21 -17 -35 -27 -28 -24 -33 24
-37 37 -3 64 -17 34 -17 -10 0 -17 -4 -17 -10 0 -5 -7 -10 -16 -10 -10 0 -14
6 -10 15 4 11 -2 15 -22 15 -21 0 -24 -2 -12 -10 13 -8 13 -10 -2 -10 -9 0
-22 -8 -27 -17 -10 -17 -10 -17 -11 0 0 9 4 17 9 17 5 0 11 9 14 20 4 17 2 20
-15 14 -11 -3 -41 -9 -66 -13 l-47 -6 48 -29 c40 -22 48 -32 44 -49 -3 -12 -9
-43 -12 -69 -8 -50 -15 -57 -34 -34 -9 11 -9 15 1 20 7 3 0 3 -17 0 -24 -5
-27 -3 -15 6 12 9 1 10 -47 8 -69 -5 -115 -30 -153 -85 -25 -37 -41 -133 -22
-133 6 0 9 7 6 15 -4 8 -2 15 3 15 12 0 44 56 36 63 -22 22 79 97 131 97 36 0
96 -31 96 -49 0 -13 -15 -16 -95 -16 -80 0 -97 -3 -112 -19 -17 -18 -17 -19 2
-11 29 12 121 18 161 11 32 -7 34 -9 35 -49 0 -35 2 -38 9 -19 12 28 17 28 22
-1 3 -17 0 -23 -15 -24 -11 -1 -22 -4 -24 -7 -3 -3 -2 -84 2 -180 6 -154 9
-174 24 -171 9 2 20 4 24 4 5 1 5 6 2 11 -3 6 -2 10 4 10 6 0 27 -24 48 -54
37 -54 39 -55 78 -49 22 3 45 12 51 20 17 20 54 25 54 7 0 -8 6 -23 13 -34 8
-14 9 -23 2 -28 -10 -7 -11 -18 -14 -225 0 -84 -5 -126 -11 -122 -6 4 -7 12
-3 18 3 7 -4 3 -16 -8 -23 -20 -23 -20 -20 0 2 11 8 23 12 26 10 7 -112 21
-123 14 -4 -3 -10 2 -14 10 -3 8 -13 15 -23 15 -25 1 -93 39 -70 40 10 0 31
-7 48 -15 16 -9 34 -13 39 -10 5 3 11 1 15 -5 3 -5 15 -10 26 -10 11 0 17 5
14 10 -9 14 1 12 17 -3 7 -8 32 -17 54 -20 l41 -7 -1 34 c-1 19 -4 38 -8 42
-5 4 -8 12 -8 18 0 6 5 4 10 -4 8 -13 10 -13 10 1 0 9 -7 20 -16 23 -28 11
-92 6 -96 -6 -4 -12 -15 -6 -88 53 l-25 20 33 -16 c34 -16 34 -16 27 7 -4 16
-4 19 3 9 8 -11 11 -10 14 5 4 21 -48 67 -65 57 -6 -3 -7 -1 -3 5 11 18 -31
35 -52 22 -16 -11 -16 -11 1 -6 12 4 16 2 11 -6 -5 -8 -1 -9 12 -4 10 4 15 3
10 -1 -4 -4 -19 -8 -33 -8 -15 0 -28 -6 -30 -12 -3 -7 2 -13 9 -13 8 0 22 -6
32 -13 17 -12 16 -14 -13 -14 -20 0 -27 3 -19 9 10 6 9 8 -4 8 -19 0 -50 -50
-45 -72 2 -7 2 -10 0 -5 -6 9 -23 -1 -23 -14 0 -5 6 -9 13 -9 6 0 21 -8 32
-16 19 -15 18 -16 -12 -9 -29 6 -32 4 -26 -12 6 -15 4 -16 -9 -5 -14 11 -19 6
-42 -32 -14 -25 -26 -49 -26 -55 0 -6 -5 -11 -11 -11 -6 0 -8 -7 -5 -16 3 -8
2 -13 -3 -10 -12 8 -54 -72 -45 -86 5 -7 2 -9 -9 -5 -9 3 -18 -1 -21 -9 -8
-22 -8 -24 9 -24 8 0 15 6 15 13 0 9 2 9 9 -1 6 -10 42 -13 159 -11 l151 3 4
26 c7 32 -1 40 -18 17 -12 -17 -14 -16 -20 13 -4 17 -4 34 -1 37 3 4 6 -4 6
-16 0 -19 3 -20 20 -11 23 12 28 42 5 34 -8 -4 -15 -1 -15 6 0 7 -7 10 -15 7
-8 -4 -17 -1 -21 5 -5 8 3 9 24 5 35 -7 39 -2 18 22 -11 12 -12 21 -5 31 9 12
10 11 5 -4 -5 -13 -2 -17 9 -12 9 3 15 0 15 -11 0 -13 3 -13 15 -3 8 7 15 9
15 4 0 -5 4 -3 9 5 8 12 12 12 25 -1 9 -9 24 -14 36 -11 16 4 20 1 19 -18 0
-22 -1 -23 -9 -4 -5 11 -9 16 -9 10 -1 -5 -12 -15 -26 -22 -14 -6 -23 -7 -19
-2 3 5 0 9 -5 9 -17 0 -13 -27 4 -34 8 -3 15 -12 15 -21 0 -12 -5 -11 -24 7
-13 13 -22 25 -21 28 2 3 -3 10 -9 16 -10 9 -12 4 -12 -22 1 -28 5 -34 24 -34
12 0 22 -5 22 -11 0 -6 -6 -9 -12 -6 -8 3 -14 -5 -15 -21 -1 -19 1 -22 9 -11
7 11 11 11 15 2 8 -21 43 -16 37 5 -5 16 -5 16 9 0 18 -22 67 -24 67 -3 0 8
-5 15 -11 15 -5 0 -7 -4 -4 -10 3 -5 -2 -10 -11 -10 -14 0 -15 3 -6 12 18 18
14 38 -8 38 -11 0 -20 5 -20 11 0 5 -4 8 -9 5 -5 -3 -11 1 -15 9 -3 8 0 17 6
21 7 4 8 3 4 -5 -6 -8 0 -10 18 -5 22 5 25 4 19 -12 -4 -12 -3 -15 5 -10 7 4
12 13 12 21 0 8 3 16 8 18 4 3 7 -5 7 -18 0 -13 -4 -21 -9 -17 -5 3 -6 -2 -3
-12 4 -10 7 -19 7 -22 0 -2 7 -1 16 3 14 5 16 2 10 -20 -6 -24 -3 -27 19 -27
23 0 25 4 26 43 0 29 3 36 8 23 7 -18 8 -18 14 -3 3 9 4 25 1 34 -5 15 -4 16
5 3 9 -13 11 -13 11 3 0 9 5 17 11 17 5 0 -2 -23 -17 -50 -15 -28 -24 -53 -20
-57 10 -10 96 -13 96 -4 0 4 -3 11 -7 15 -4 4 -8 22 -9 39 -1 18 1 26 3 20 7
-20 29 -15 30 7 1 11 -3 20 -8 20 -6 0 -8 -4 -4 -9 3 -6 -4 -9 -15 -8 -12 1
-19 6 -16 14 5 12 -9 17 -41 16 -7 -1 -13 3 -13 8 0 22 -19 6 -23 -18 -3 -20
-4 -15 -6 14 l-1 43 50 -19 c28 -11 50 -17 50 -14 0 2 10 -3 21 -11 12 -8 28
-12 35 -9 8 3 14 1 14 -5 0 -11 51 -35 66 -30 5 1 19 -3 31 -10 25 -14 222
-41 271 -38 36 2 39 -1 15 -20 -15 -11 17 -13 201 -14 214 0 220 1 245 23 l26
22 -19 -22 -19 -23 167 0 166 0 10 25 c5 14 12 25 15 25 4 0 4 -4 1 -8 -3 -5
21 -16 54 -25 49 -14 108 -17 320 -17 l260 0 0 35 0 35 -123 0 c-67 0 -176 7
-240 15 -65 8 -123 13 -130 11 -7 -1 -8 -1 -3 2 16 8 -56 33 -77 26 -13 -4
-17 -2 -13 5 5 7 -1 11 -14 11 -12 0 -19 -3 -17 -7 3 -5 -1 -14 -9 -21 -12
-11 -14 -6 -10 35 3 26 8 59 11 73 5 19 4 22 -4 10 -10 -13 -11 -13 -12 0 0 8
-6 -7 -13 -35 -7 -29 -17 -49 -24 -47 -9 1 -10 -6 -6 -23 5 -21 3 -25 -15 -25
-12 0 -21 4 -21 10 0 5 8 7 18 4 16 -5 16 -5 0 9 -10 8 -15 17 -11 20 3 4 -4
7 -16 7 -17 0 -22 -4 -17 -16 5 -12 2 -15 -10 -10 -8 3 -18 6 -20 6 -2 0 -4 7
-4 16 0 13 -10 14 -69 8 -84 -8 -132 0 -108 19 8 7 17 24 21 39 4 16 13 28 22
28 21 0 137 40 149 51 10 10 85 12 109 3 9 -3 16 -16 17 -28 0 -20 1 -20 9 -1
5 11 9 16 9 11 1 -5 8 -3 16 4 10 9 15 9 15 1 0 -19 48 -13 55 8 3 10 14 28
24 39 19 23 53 21 82 -4 9 -8 19 -11 23 -7 12 12 56 14 56 2 0 -6 -6 -9 -13
-6 -8 3 -20 1 -28 -4 -9 -5 1 -7 29 -5 24 2 42 -1 42 -7 0 -6 2 -8 5 -5 3 3 2
13 -1 22 -5 14 -9 15 -15 4 -6 -9 -9 -9 -9 -1 0 6 5 15 10 18 13 8 38 -16 33
-31 -5 -14 96 -28 192 -26 123 2 122 1 117 34 -5 32 -21 35 -73 14 -29 -11
-44 -11 -99 1 -36 7 -78 12 -93 10 -15 -2 -30 0 -33 4 -9 16 47 21 91 9 25 -7
54 -10 65 -7 11 3 20 1 20 -3 0 -10 25 -6 88 12 38 11 42 15 42 45 0 24 -5 33
-16 33 -14 0 -15 -2 -3 -17 13 -16 12 -17 -3 -4 -27 21 -23 44 7 39 27 -6 32
1 13 20 -9 9 -8 15 8 28 19 15 19 16 -1 10 l-20 -6 20 16 c14 11 16 18 8 21
-7 3 -13 9 -13 14 0 6 4 8 9 5 13 -9 20 41 7 55 -8 8 -8 13 2 16 6 3 12 18 12
34 0 16 5 29 10 29 6 0 10 5 10 11 0 6 -7 8 -16 5 -12 -5 -11 1 5 28 25 40 26
46 6 46 -8 0 -15 5 -15 10 0 6 5 10 10 10 6 0 10 11 10 25 0 14 -4 25 -9 25
-5 0 -9 6 -8 13 1 45 -5 67 -18 67 -8 0 -15 4 -15 10 0 6 9 6 25 0 34 -13 32
3 -2 20 -23 11 -25 14 -10 17 10 3 17 10 16 16 -3 20 12 47 27 47 8 0 14 5 14
10 0 6 -5 10 -11 10 -5 0 -7 5 -4 10 3 6 -4 10 -17 9 -13 0 -17 -3 -10 -6 19
-8 14 -23 -8 -23 -11 0 -20 4 -20 10 0 14 48 43 60 35 5 -3 10 -1 10 4 0 7 27
11 69 11 68 0 70 1 74 28 2 15 5 1 6 -31 1 -53 0 -57 -15 -43 -20 20 -28 20
-20 1 4 -13 2 -13 -14 -5 -10 5 -22 15 -25 20 -9 15 -51 12 -64 -4 -9 -11 -9
-15 1 -19 10 -4 10 -8 -2 -16 -8 -6 -19 -12 -24 -14 -4 -1 -10 -15 -11 -30 -2
-15 1 -25 5 -22 5 3 7 12 4 19 -3 7 2 16 10 19 9 4 16 2 16 -3 0 -5 7 -7 15
-4 8 4 23 3 33 -1 9 -5 25 -7 34 -6 15 2 17 -3 12 -28 -5 -24 -3 -31 10 -31 9
0 16 -5 16 -11 0 -6 -7 -8 -16 -5 -8 3 -12 2 -9 -4 12 -20 34 -9 38 18 2 15 5
2 6 -28 1 -57 3 -59 68 -87 10 -4 13 382 13 1886 l0 1891 -40 0 -40 0 0 -371
c1 -204 -2 -374 -6 -378 -4 -3 -4 -1 0 6 3 6 2 14 -3 17 -10 7 -9 -20 2 -30 4
-4 7 -12 7 -17 0 -6 -28 17 -63 51 -34 34 -72 69 -84 77 -13 9 -23 20 -23 25
0 6 8 3 18 -5 9 -8 21 -15 27 -14 5 0 13 -8 17 -18 7 -16 8 -16 5 2 -2 11 -8
19 -14 18 -18 -4 -22 21 -5 37 14 13 15 12 9 -4 -5 -12 -3 -16 5 -13 7 2 12
10 11 16 -2 6 1 11 7 11 5 0 20 12 34 27 l25 26 6 -26 c4 -15 4 -38 1 -52 -4
-14 -2 -25 4 -25 7 0 10 108 9 320 l-1 320 -113 0 c-110 0 -114 -1 -118 -22
l-4 -23 -2 23 -1 22 -309 0 -310 0 -4 -32 -4 -33 -1 32 -2 33 -394 0 -395 0
-4 -43 -4 -42 -1 43 -2 42 -80 0 c-76 0 -80 -1 -80 -22 0 -30 -15 -52 -28 -44
-6 3 -10 15 -9 26 1 14 4 16 14 8 10 -8 13 -5 13 11 0 19 -5 22 -42 20 -56 -1
-150 -20 -165 -32 -10 -7 -13 -4 -13 12 0 18 -5 22 -27 19 -38 -4 -41 -27 -5
-40 36 -14 39 -43 5 -43 -16 0 -23 6 -23 20 0 17 -7 20 -45 21 -40 1 -44 -1
-48 -25 -3 -20 -4 -18 -6 11 -1 34 1 37 37 46 25 7 -348 10 -1151 11 l-1187 1
0 -314z m3120 284 c-8 -5 -17 -7 -19 -4 -3 3 1 9 9 14 8 5 17 7 19 4 3 -3 -1
-9 -9 -14z m-1102 -56 l4 -29 -22 20 c-16 15 -20 16 -15 3 5 -12 2 -16 -12
-13 -10 2 -21 4 -25 4 -18 2 -6 21 17 27 14 3 25 11 25 16 0 23 25 -1 28 -28z
m1128 24 c3 -5 2 -13 -2 -18 -11 -10 -57 7 -50 18 7 12 45 12 52 0z m-137 -17
c12 -8 12 -12 2 -24 -11 -14 -15 -14 -41 1 -19 11 -25 19 -17 24 16 10 39 10
56 -1z m1273 -21 c-2 -16 -6 -30 -8 -30 -2 0 -4 14 -4 30 0 17 4 30 8 30 5 0
7 -13 4 -30z m-1196 -37 c-7 -7 -26 7 -26 19 0 6 6 6 15 -2 9 -7 13 -15 11
-17z m-1132 1 c5 -12 2 -15 -10 -10 -8 3 -18 6 -20 6 -3 0 -2 5 1 10 9 15 22
12 29 -6z m636 -4 c-25 -10 -49 -14 -54 -10 -17 17 6 30 52 29 l47 0 -45 -19z
m257 -32 c-3 -8 -6 -5 -6 6 -1 11 2 17 5 13 3 -3 4 -12 1 -19z m-527 -25 c-5
-20 -7 -55 -5 -78 3 -32 2 -35 -4 -15 -14 39 -13 118 2 123 6 3 13 6 13 6 1 1
-2 -16 -6 -36z m359 4 c-1 -17 -2 -18 -6 -4 -2 9 -9 17 -14 17 -6 0 -7 5 -4
10 10 16 25 1 24 -23z m-198 0 c-6 -8 -8 -17 -4 -21 4 -4 0 -4 -10 0 -24 9
-21 34 4 34 17 0 19 -3 10 -13z m-894 -39 c-3 -7 -5 -2 -5 12 0 14 2 19 5 13
2 -7 2 -19 0 -25z m814 -30 c-47 -20 -65 7 -18 27 17 8 23 7 28 -5 4 -9 0 -18
-10 -22z m139 27 c0 -2 -6 -8 -13 -14 -10 -8 -14 -7 -14 2 0 8 6 14 14 14 7 0
13 -1 13 -2z m391 -5 c10 -6 19 -15 19 -21 0 -6 -7 -6 -20 1 -15 8 -26 7 -43
-5 -21 -14 -26 -14 -36 -1 -7 8 -10 20 -6 26 8 13 61 13 86 0z m-1333 -122 c2
-65 8 -105 15 -110 9 -6 9 -8 0 -8 -15 0 -17 -48 -3 -70 8 -12 13 -13 29 -3
21 13 55 7 46 -8 -9 -14 46 -23 66 -10 28 17 80 15 73 -4 -4 -9 0 -15 10 -15
9 0 16 -7 16 -15 0 -8 -4 -15 -10 -15 -5 0 -10 5 -10 10 0 19 -15 10 -27 -16
-7 -15 -10 -31 -6 -36 3 -6 -4 -8 -18 -4 -13 3 -18 3 -11 0 6 -3 12 -15 12
-25 0 -11 -5 -17 -10 -14 -6 4 -10 -5 -8 -24 1 -17 8 -33 16 -36 7 -2 10 0 7
5 -3 6 5 10 19 10 14 0 28 5 32 12 4 7 3 8 -4 4 -8 -5 -10 -2 -6 9 4 9 9 13
12 10 3 -3 12 1 21 9 21 19 77 33 67 17 -4 -6 -3 -11 2 -11 6 0 12 -7 16 -15
4 -12 2 -13 -12 -6 -17 9 -52 -7 -52 -24 0 -17 -33 -43 -48 -39 -10 3 -7 -1 5
-7 21 -11 22 -13 5 -26 -9 -8 -11 -11 -3 -7 11 5 13 3 7 -11 -5 -13 1 -10 18
8 25 27 49 33 80 21 21 -8 10 -24 -17 -25 -12 0 -17 -3 -10 -5 8 -4 9 -13 1
-35 -10 -29 -23 -38 -30 -18 -6 17 -38 -2 -53 -32 -11 -21 -21 -27 -42 -26
-26 2 -28 -1 -25 -31 2 -18 -1 -31 -5 -30 -5 2 -26 -13 -45 -34 l-36 -36 23
-20 c15 -13 27 -17 36 -11 11 7 10 9 -4 9 -10 0 -15 5 -12 11 4 6 14 8 22 5 9
-4 21 -2 28 4 9 8 14 6 18 -4 4 -9 -2 -17 -14 -21 -13 -5 -18 -12 -14 -22 4
-13 3 -13 -8 -4 -11 9 -17 8 -26 -2 -6 -8 -8 -17 -4 -20 3 -4 1 -7 -5 -7 -7 0
-12 -7 -12 -15 0 -17 9 -19 30 -5 9 5 19 5 26 -1 8 -7 15 -6 19 2 4 6 2 14 -4
18 -7 5 -3 12 14 19 14 7 25 8 25 2 0 -5 7 -7 15 -4 8 4 15 1 15 -5 0 -7 -7
-14 -15 -17 -8 -4 -15 -10 -15 -16 0 -5 5 -6 12 -2 8 5 9 2 4 -12 -4 -10 -10
-31 -13 -46 -4 -19 -12 -28 -25 -28 -19 0 -20 -4 -13 -66 4 -36 1 -131 -6
-211 -9 -109 -9 -162 -1 -212 21 -123 44 -301 40 -310 -4 -12 -93 65 -93 81 0
6 -11 17 -25 26 l-25 14 25 -22 c25 -22 16 -22 -31 1 l-27 13 -6 166 c-4 91
-11 260 -16 375 -5 116 -14 379 -20 585 -5 206 -13 419 -16 473 -3 53 -2 97 2
97 5 0 10 -46 12 -102z m2692 20 c0 -36 5 -58 13 -61 7 -3 5 -6 -5 -6 -15 -1
-18 7 -18 43 0 24 -3 59 -6 77 -4 26 -3 30 5 19 6 -8 11 -40 11 -72z m-1740
62 c0 -5 -2 -10 -4 -10 -3 0 -8 5 -11 10 -3 6 -1 10 4 10 6 0 11 -4 11 -10z
m-1617 -117 c2 -46 0 -83 -5 -83 -4 0 -7 44 -7 98 1 111 6 105 12 -15z m1657
93 c0 -2 3 -11 6 -19 3 -9 -2 -16 -15 -20 -12 -3 -22 1 -25 10 -10 25 -7 33
14 33 11 0 20 -2 20 -4z m-567 -36 c-3 -12 -8 -19 -11 -16 -5 6 5 36 12 36 2
0 2 -9 -1 -20z m334 -2 c-3 -8 -6 -5 -6 6 -1 11 2 17 5 13 3 -3 4 -12 1 -19z
m63 -12 c0 -6 -5 -5 -11 1 -6 6 -17 10 -23 9 -6 -2 -8 -1 -3 1 4 3 4 9 1 15
-3 5 3 4 15 -4 12 -7 21 -17 21 -22z m80 -2 c0 -2 -7 -4 -15 -4 -8 0 -15 4
-15 10 0 5 7 7 15 4 8 -4 15 -8 15 -10z m-479 -41 c-8 -15 -10 -15 -11 -2 0
17 10 32 18 25 2 -3 -1 -13 -7 -23z m379 17 c0 -5 -5 -10 -11 -10 -5 0 -7 5
-4 10 3 6 8 10 11 10 2 0 4 -4 4 -10z m40 0 c0 -5 -4 -10 -10 -10 -5 0 -10 5
-10 10 0 6 5 10 10 10 6 0 10 -4 10 -10z m-75 -10 c3 -6 -1 -7 -9 -4 -18 7
-21 14 -7 14 6 0 13 -4 16 -10z m-391 -21 c3 -3 -5 -5 -19 -5 -13 0 -22 3 -19
7 4 8 30 6 38 -2z m476 3 c0 -18 -39 -46 -59 -44 -19 3 -21 6 -10 13 11 8 10
9 -4 7 -10 -2 -17 -6 -15 -10 2 -4 -5 -13 -15 -20 -11 -9 -16 -24 -15 -48 2
-19 -1 -37 -7 -40 -6 -3 -11 20 -12 58 -1 34 2 62 5 63 4 0 20 2 36 4 16 2 38
-1 49 -6 16 -9 18 -8 12 10 -5 16 -2 20 15 18 11 -1 20 -3 20 -5z m-1023 -49
c-3 -10 -5 -4 -5 12 0 17 2 24 5 18 2 -7 2 -21 0 -30z m544 10 c1 -17 2 -17 6
0 5 19 5 19 27 11 23 -9 2 -44 -24 -39 -11 2 -22 -1 -25 -6 -4 -5 -11 -7 -16
-4 -5 4 -9 1 -9 -6 0 -7 10 -9 25 -7 14 3 25 1 25 -5 0 -5 -14 -7 -30 -5 -23
3 -30 1 -26 -9 3 -7 -1 -13 -10 -13 -10 0 -14 -6 -11 -14 7 -17 -16 -39 -28
-28 -5 4 -5 1 -1 -6 4 -7 12 -10 17 -7 5 4 9 4 9 1 0 -2 3 -13 7 -23 5 -14 1
-13 -20 6 -31 28 -34 46 -9 61 11 7 12 10 2 7 -16 -4 -46 20 -36 30 3 4 21 6
39 6 35 0 64 26 44 39 -8 5 -6 8 5 8 9 0 19 -6 21 -12 4 -10 6 -10 6 0 1 7 -9
17 -21 22 -22 8 -22 9 5 9 19 1 27 -4 28 -16z m-1930 -20 c-12 -20 -14 -14 -5
12 4 9 9 14 11 11 3 -2 0 -13 -6 -23z m690 0 c-12 -20 -14 -14 -5 12 4 9 9 14
11 11 3 -2 0 -13 -6 -23z m226 5 c-3 -8 -6 -5 -6 6 -1 11 2 17 5 13 3 -3 4
-12 1 -19z m133 -8 c0 -5 -4 -10 -10 -10 -5 0 -10 5 -10 10 0 6 5 10 10 10 6
0 10 -4 10 -10z m309 -30 c0 -10 -3 -8 -9 5 -12 27 -12 43 0 25 5 -8 9 -22 9
-30z m1059 28 c-2 -6 -10 -14 -16 -16 -7 -2 -10 2 -6 12 7 18 28 22 22 4z
m1070 0 c8 -10 4 -13 -14 -13 -26 0 -32 10 -11 18 6 3 13 6 13 6 1 1 6 -5 12
-11z m965 -21 c-3 -5 -9 -3 -14 4 -4 7 -5 17 -2 22 3 5 9 3 14 -4 4 -7 5 -17
2 -22z m-3532 -10 c-10 -9 -11 -8 -5 6 3 10 9 15 12 12 3 -3 0 -11 -7 -18z
m82 7 c-3 -7 -11 -10 -19 -7 -20 8 -17 22 5 20 10 0 17 -7 14 -13z m386 -16
c0 -31 -1 -31 -10 -10 -5 13 -7 28 -3 33 10 16 14 9 13 -23z m-215 -10 c-3 -4
-11 -2 -18 5 -10 8 -11 14 -3 19 13 8 29 -11 21 -24z m426 22 c0 -5 -5 -10
-11 -10 -5 0 -7 5 -4 10 3 6 8 10 11 10 2 0 4 -4 4 -10z m2823 -11 c-8 -8 -13
-7 -18 2 -5 8 -4 10 3 5 7 -4 12 -2 12 5 0 7 3 9 7 6 4 -4 2 -12 -4 -18z
m-4043 1 c0 -5 -4 -10 -10 -10 -5 0 -10 5 -10 10 0 6 5 10 10 10 6 0 10 -4 10
-10z m60 0 c0 -5 -4 -10 -10 -10 -5 0 -10 5 -10 10 0 6 5 10 10 10 6 0 10 -4
10 -10z m220 -5 c0 -2 -7 -5 -15 -9 -9 -3 -15 0 -15 9 0 9 6 12 15 9 8 -4 15
-7 15 -9z m680 -5 c0 -5 -4 -10 -10 -10 -5 0 -10 5 -10 10 0 6 5 10 10 10 6 0
10 -4 10 -10z m335 0 c3 -5 1 -10 -4 -10 -6 0 -11 5 -11 10 0 6 2 10 4 10 3 0
8 -4 11 -10z m45 -15 c0 -18 -5 -25 -20 -25 -25 0 -25 5 -2 29 22 25 22 25 22
-4z m610 10 c-7 -9 -15 -13 -17 -11 -7 7 7 26 19 26 6 0 6 -6 -2 -15z m-1619
-35 c5 0 9 -10 9 -22 0 -21 -1 -21 -15 6 -8 15 -14 36 -14 45 1 9 4 6 6 -6 2
-13 9 -23 14 -23z m195 31 c11 9 14 7 14 -10 0 -12 -4 -19 -10 -16 -6 3 -7 -1
-4 -10 5 -11 2 -14 -10 -9 -9 4 -16 17 -15 33 0 14 3 20 6 13 4 -10 8 -10 19
-1z m94 -5 c0 -7 -13 -19 -30 -26 -33 -14 -38 -27 -14 -37 9 -3 27 6 46 26 17
17 34 31 39 31 14 0 19 -18 7 -24 -7 -3 -1 -5 14 -3 20 3 29 -2 37 -20 14 -30
29 -29 43 2 6 14 19 25 30 25 14 0 18 -8 18 -36 0 -23 6 -42 18 -50 21 -16 32
-17 32 -4 0 6 -7 10 -15 10 -11 0 -15 11 -15 40 0 29 4 40 15 40 8 0 15 -7 15
-15 0 -8 6 -12 14 -9 8 3 16 -3 19 -16 4 -14 12 -21 24 -18 24 4 28 55 5 61
-9 3 -2 4 17 4 18 -1 36 -8 39 -15 4 -11 6 -11 13 -1 18 30 24 -12 24 -176 0
-95 3 -169 6 -164 3 6 9 -63 12 -153 12 -309 26 -633 32 -729 l6 -97 -110 6
c-149 7 -258 -20 -368 -88 -12 -8 -24 -12 -27 -9 -10 10 -14 68 -21 269 -3
113 -10 268 -15 345 -5 77 -12 268 -15 424 -3 156 -6 286 -7 290 -4 40 5 59
40 79 20 12 31 22 25 22 -25 0 -13 19 15 23 15 2 28 5 30 6 1 0 2 -5 2 -13z
m940 -2 c0 -8 -4 -12 -10 -9 -5 3 -10 10 -10 16 0 5 5 9 10 9 6 0 10 -7 10
-16z m-1675 -4 c3 -5 1 -10 -4 -10 -6 0 -11 5 -11 10 0 6 2 10 4 10 3 0 8 -4
11 -10z m868 3 c-7 -2 -19 -2 -25 0 -7 3 -2 5 12 5 14 0 19 -2 13 -5z m777
-19 c0 -8 -4 -13 -9 -10 -5 3 -12 -1 -15 -10 -3 -8 -10 -13 -16 -9 -12 8 10
45 27 45 7 0 13 -7 13 -16z m-1230 -8 c0 -8 4 -16 9 -18 8 -3 20 -62 24 -125
1 -11 5 -19 8 -17 4 2 7 -6 8 -19 5 -118 11 -237 20 -372 6 -88 13 -230 16
-315 3 -85 12 -249 20 -365 17 -246 35 -569 35 -607 0 -25 -2 -26 -30 -18 -16
5 -30 5 -30 0 0 -4 -7 -11 -16 -14 -12 -5 -15 -2 -10 11 6 16 5 15 -13 -1 -11
-10 -21 -13 -25 -7 -4 6 -16 6 -36 -1 -19 -6 -35 -7 -43 -1 -14 11 -127 11
-144 0 -9 -6 -13 -1 -12 15 0 13 -3 83 -6 156 -5 94 -4 132 4 132 6 0 11 5 11
11 0 7 -26 9 -84 4 l-83 -7 -7 153 c-4 85 -11 210 -16 279 -5 69 -12 202 -15
295 -4 94 -10 222 -15 285 -4 63 -4 121 0 129 4 8 4 28 -1 44 -5 17 -8 65 -7
106 1 42 -2 91 -6 109 -8 35 8 46 17 12 3 -11 10 -20 16 -20 9 0 9 5 1 20 -10
19 -7 24 13 21 4 -1 5 10 1 24 -5 19 -2 25 10 25 9 0 16 5 16 10 0 22 -29 8
-39 -17 -10 -27 -10 -27 -8 -3 1 16 -3 25 -12 25 -16 0 -24 52 -10 61 8 5 24
-15 24 -30 0 -5 14 -11 30 -13 17 -2 35 -10 41 -18 18 -23 27 -18 21 13 l-6
27 11 -26 c14 -33 57 -46 118 -38 l45 6 -42 1 c-34 2 -43 6 -43 20 0 9 -3 28
-6 42 -4 19 -3 22 5 10 9 -12 14 -13 31 -2 24 14 100 16 100 2 0 -5 -11 -10
-25 -10 -18 0 -25 -5 -25 -20 0 -15 7 -20 25 -20 14 0 25 -4 25 -10 0 -18 30
-10 57 15 26 24 27 24 40 5 8 -11 12 -24 9 -29 -4 -5 -2 -20 3 -33 9 -21 10
-19 10 14 1 41 -14 89 -32 100 -8 5 -6 8 6 8 9 0 17 -6 17 -14z m-280 -11 c0
-8 -4 -15 -10 -15 -5 0 -10 7 -10 15 0 8 5 15 10 15 6 0 10 -7 10 -15z m1560
-35 c4 0 10 -9 13 -20 3 -11 2 -20 -2 -20 -10 0 -31 47 -30 63 1 7 3 4 6 -5 2
-10 8 -18 13 -18z m34 -9 c-2 -2 -10 4 -18 12 -12 11 -13 16 -3 20 11 4 29
-23 21 -32z m-1574 -6 c0 -8 -4 -15 -10 -15 -5 0 -10 7 -10 15 0 8 5 15 10 15
6 0 10 -7 10 -15z m307 -27 c-3 -7 -5 -2 -5 12 0 14 2 19 5 13 2 -7 2 -19 0
-25z m-693 -9 c-8 -14 -24 -10 -24 6 0 9 6 12 15 9 8 -4 12 -10 9 -15z m1761
0 c11 -16 1 -19 -13 -3 -7 8 -8 14 -3 14 5 0 13 -5 16 -11z m825 -8 c0 -5 -7
-12 -16 -15 -14 -5 -15 -4 -4 9 14 17 20 19 20 6z m-706 -17 c3 -8 2 -12 -4
-9 -6 3 -10 10 -10 16 0 14 7 11 14 -7z m86 -109 c0 -61 -6 -70 -35 -49 -17
13 -18 16 -5 24 9 6 17 5 23 -3 6 -8 7 -8 4 3 -2 8 -11 14 -20 12 -18 -3 -17
39 3 63 20 24 30 8 30 -50z m-53 -10 c0 -8 -4 -15 -9 -15 -10 0 -11 14 -1 23
9 10 10 9 10 -8z m698 -5 c-4 -6 -11 -8 -16 -5 -5 4 -9 1 -9 -4 0 -6 -5 -11
-11 -11 -8 0 -8 5 1 15 14 17 45 21 35 5z m1160 -30 c3 -11 4 -30 1 -42 l-6
-23 11 22 c17 33 38 36 49 7 12 -32 13 -54 1 -54 -5 0 -11 -8 -14 -18 -2 -11
-14 -22 -26 -25 -17 -4 -27 2 -42 26 l-19 32 0 -28 c0 -16 4 -26 10 -22 9 6
14 -8 11 -27 -2 -12 14 -9 27 4 9 9 12 9 12 -3 0 -9 9 -24 20 -34 23 -21 60
-30 60 -15 0 6 -6 10 -12 10 -9 0 -9 3 1 9 14 9 43 -8 35 -20 -2 -3 8 -4 23
-1 21 4 25 2 20 -11 -7 -18 12 -28 40 -21 14 4 22 -5 35 -36 10 -25 13 -42 6
-46 -6 -4 -6 -10 1 -17 6 -6 11 -16 11 -21 -1 -12 -21 19 -21 31 0 9 -39 32
-54 32 -5 1 -3 -4 5 -9 13 -8 12 -10 -3 -10 -10 0 -15 -4 -12 -10 3 -5 16 -10
29 -10 26 0 66 -49 66 -80 0 -12 5 -30 10 -41 17 -32 15 -160 -4 -194 -20 -38
-20 -65 -1 -65 17 0 19 -27 5 -64 -9 -25 -40 -37 -40 -16 0 14 -11 12 -34 -5
-11 -8 -17 -18 -13 -21 4 -4 13 -1 21 5 11 9 20 10 36 1 17 -9 20 -17 15 -42
-4 -17 -19 -42 -34 -55 l-26 -24 26 5 c23 5 27 2 33 -24 3 -19 -1 -43 -11 -64
-24 -52 -94 -65 -286 -54 -43 3 -80 2 -82 -2 -2 -4 -14 -6 -27 -5 -13 1 -28
-1 -34 -6 -5 -5 -44 -11 -85 -15 -41 -3 -78 -9 -83 -11 -4 -3 -11 -2 -15 3 -3
5 -15 14 -26 20 -11 6 -21 21 -23 33 -2 12 -14 26 -28 32 -33 12 -40 12 -56
-5 -18 -17 -78 -49 -78 -40 0 4 -6 2 -12 -3 -7 -6 -26 -9 -43 -8 -16 1 -38 3
-47 4 -10 0 -18 8 -18 17 0 14 -2 14 -16 3 -19 -15 -97 -21 -284 -21 -132 0
-156 3 -193 23 -11 6 -24 6 -36 0 -12 -7 -22 -6 -29 1 -9 9 -15 9 -24 0 -16
-16 -37 -15 -34 1 1 6 12 24 25 39 17 20 28 25 36 18 9 -7 16 -6 25 5 7 8 15
13 19 11 4 -3 27 11 51 30 24 19 50 32 58 29 7 -3 18 -5 23 -5 5 0 9 -4 9 -10
0 -21 36 -50 62 -50 16 0 28 5 28 10 0 6 6 10 14 10 8 0 23 19 34 43 20 42
121 147 177 183 38 24 101 90 121 127 8 15 18 27 22 27 11 0 41 29 80 78 19
23 45 54 58 69 36 41 65 75 99 116 16 20 35 37 42 37 6 0 14 4 17 9 4 5 -4 7
-16 3 -21 -5 -21 -5 -2 21 22 30 65 57 89 57 9 0 19 9 22 19 3 11 14 22 25 24
11 3 17 10 14 15 -8 13 19 34 41 32 10 -1 27 -2 38 -1 16 1 17 3 5 11 -9 6
-17 5 -21 -1 -4 -7 -8 -5 -12 4 -4 11 0 15 14 12 11 -2 22 2 26 11 4 11 9 12
18 4 16 -13 30 4 19 22 -4 6 -3 8 3 5 6 -4 13 6 17 23 6 34 22 39 31 10z
m-1015 1 c0 -5 -7 -12 -16 -15 -14 -5 -15 -4 -4 9 14 17 20 19 20 6z m-53 -36
c-7 -14 -16 -25 -20 -25 -8 0 -2 14 16 38 15 19 16 14 4 -13z m103 -19 c0 -2
-11 -11 -25 -20 -28 -19 -33 -15 -9 8 14 15 34 22 34 12z m59 -13 c-26 -32
-52 -58 -44 -43 10 18 47 60 53 60 2 0 -2 -8 -9 -17z m-49 -12 c0 -5 -7 -12
-16 -15 -14 -5 -15 -4 -4 9 14 17 20 19 20 6z m-1016 -37 c9 -24 7 -28 -9 -14
-17 14 -20 30 -6 30 5 0 12 -7 15 -16z m2560 -60 c8 -21 -7 -17 -21 6 -11 16
-10 18 1 14 8 -3 17 -12 20 -20z m-2578 5 c3 -6 1 -16 -5 -22 -9 -9 -11 -8 -6
5 5 14 2 16 -14 13 -12 -2 -19 0 -16 6 8 12 32 12 41 -2z m28 -45 c3 -9 11
-12 18 -8 8 4 10 3 5 -2 -5 -5 -14 -9 -20 -9 -7 0 -12 -7 -12 -15 0 -26 -19
-30 -42 -8 -25 24 -21 42 8 33 13 -4 19 -2 19 9 0 21 16 21 24 0z m2616 -76
l30 -63 0 -217 0 -217 -32 32 c-18 18 -51 40 -73 50 l-41 18 9 69 c6 38 14 67
18 64 10 -6 6 53 -4 63 -4 3 -7 13 -7 20 0 11 4 11 17 -3 11 -11 18 -13 21 -5
2 6 8 9 13 6 5 -4 6 1 3 9 -3 9 -9 16 -14 16 -4 0 -7 14 -8 31 -1 24 2 28 13
19 10 -8 15 -8 21 1 5 8 3 9 -6 4 -9 -5 -10 -2 -6 13 4 12 0 26 -11 37 -21 21
-25 55 -6 55 7 0 13 -6 13 -14 0 -8 6 -16 14 -19 11 -4 9 5 -6 31 -12 20 -15
31 -8 25 18 -17 38 -17 22 -1 -12 12 -17 38 -7 38 3 0 19 -28 35 -62z m-199
35 c13 -16 12 -17 -3 -4 -17 13 -22 21 -14 21 2 0 10 -8 17 -17z m119 -14 c0
-14 -17 -10 -23 5 -4 10 -1 13 9 9 7 -3 14 -9 14 -14z m-1865 -30 c-3 -8 -15
-21 -28 -28 -21 -14 -21 -13 -7 5 36 45 46 52 35 23z m-529 -25 c-5 -14 -4
-15 9 -4 13 11 15 8 15 -15 0 -22 -3 -25 -14 -16 -11 9 -15 9 -19 -1 -4 -9 -6
-7 -6 4 -1 19 9 48 16 48 3 0 2 -7 -1 -16z m2419 -44 c3 -5 1 -10 -4 -10 -6 0
-11 5 -11 10 0 6 2 10 4 10 3 0 8 -4 11 -10z m-27 -36 c-4 -3 -12 5 -18 18
-12 22 -12 22 6 6 10 -10 15 -20 12 -24z m-111 -16 c-3 -7 -5 -2 -5 12 0 14 2
19 5 13 2 -7 2 -19 0 -25z m-2259 -39 c-3 -8 -7 -3 -11 10 -4 17 -3 21 5 13 5
-5 8 -16 6 -23z m2357 21 c3 -5 1 -10 -4 -10 -6 0 -11 5 -11 10 0 6 2 10 4 10
3 0 8 -4 11 -10z m-1958 -72 c-3 -8 -6 -5 -6 6 -1 11 2 17 5 13 3 -3 4 -12 1
-19z m-407 -2 c0 -8 -4 -18 -10 -21 -5 -3 -10 3 -10 14 0 12 5 21 10 21 6 0
10 -6 10 -14z m-15 -151 c-28 -121 -28 -121 -32 -102 -4 16 23 141 34 160 12
19 11 -3 -2 -58z m-55 -25 c0 -11 -4 -20 -9 -20 -5 0 -7 9 -4 20 3 11 7 20 9
20 2 0 4 -9 4 -20z m40 -130 c0 -5 -2 -10 -4 -10 -3 0 -8 5 -11 10 -3 6 -1 10
4 10 6 0 11 -4 11 -10z m2390 0 c8 -5 11 -10 5 -11 -5 0 -18 -2 -27 -4 -18 -3
-24 6 -11 18 9 9 15 9 33 -3z m109 -26 c4 3 7 -23 7 -58 0 -48 -4 -62 -16 -63
-12 -1 -14 11 -11 70 2 40 6 66 8 59 3 -6 8 -10 12 -8z m-1722 -16 c-3 -8 -6
-5 -6 6 -1 11 2 17 5 13 3 -3 4 -12 1 -19z m53 -8 c0 -5 -5 -10 -11 -10 -5 0
-7 5 -4 10 3 6 8 10 11 10 2 0 4 -4 4 -10z m1579 3 c-10 -2 -15 -11 -12 -21 2
-10 -5 -26 -16 -36 -19 -17 -20 -17 -36 14 -11 21 -12 29 -4 24 8 -5 11 -3 7
7 -4 11 5 14 36 15 22 1 34 0 25 -3z m-70 -60 c-3 -21 2 -33 15 -33 20 0 27
-13 14 -30 -8 -12 -9 -11 -4 4 6 16 4 17 -9 6 -12 -10 -18 -10 -30 0 -8 7 -12
17 -8 24 4 6 8 14 9 19 3 15 4 17 9 17 3 0 4 -3 4 -7z m212 -16 c-13 -13 -26
-3 -16 12 3 6 11 8 17 5 6 -4 6 -10 -1 -17z m-3164 -141 l79 -1 -4 -27 -4 -28
-109 0 c-105 0 -109 1 -109 22 0 21 0 21 14 2 15 -20 28 -15 32 12 1 9 -3 13
-10 11 -7 -3 -19 -1 -27 4 -10 6 -7 9 14 9 15 0 27 6 27 13 0 8 3 8 9 -2 7
-11 31 -15 88 -15z m2282 -52 c-13 -7 -35 -13 -49 -13 l-25 0 28 24 c24 21 32
23 49 14 21 -11 21 -12 -3 -25z m309 29 c-10 -2 -26 -2 -35 0 -10 3 -2 5 17 5
19 0 27 -2 18 -5z m150 -58 c-2 -8 -8 -11 -14 -7 -8 5 -9 14 -1 32 8 20 11 22
14 8 3 -10 3 -25 1 -33z m-2991 29 c-3 -3 -12 -4 -19 -1 -8 3 -5 6 6 6 11 1
17 -2 13 -5z m86 -1 c-7 -2 -21 -2 -30 0 -10 3 -4 5 12 5 17 0 24 -2 18 -5z
m1717 -3 c13 -8 13 -10 -1 -10 -9 0 -22 -7 -29 -15 -14 -17 -35 -21 -25 -4 4
6 -1 17 -11 24 -18 13 -16 14 16 15 19 0 42 -5 50 -10z m100 -24 c0 -3 -4 -8
-10 -11 -5 -3 -10 -1 -10 4 0 6 5 11 10 11 6 0 10 -2 10 -4z m178 -26 c32 -6
82 -6 129 0 42 6 78 8 80 6 2 -2 -27 -13 -65 -25 -75 -25 -185 -30 -220 -12
-55 28 -63 31 -77 31 -8 0 -15 4 -15 8 0 10 88 5 168 -8z m-2187 -59 c13 -18
29 -20 227 -23 118 -2 217 -5 222 -8 4 -3 10 -46 14 -96 l7 -91 -48 -7 c-26
-3 -55 -11 -63 -17 -13 -9 -12 -10 3 -5 12 4 17 0 17 -13 0 -20 -29 -24 -42
-6 -5 6 -8 5 -8 -3 0 -8 -10 -13 -22 -12 -42 4 -55 1 -40 -9 11 -7 11 -9 -2
-14 -9 -4 -16 -2 -16 3 0 5 -8 6 -17 3 -13 -5 -15 -2 -10 13 7 18 6 18 -7 2
-7 -10 -23 -18 -35 -18 -11 0 -21 -4 -21 -10 0 -5 10 -10 22 -10 12 0 19 -2
16 -6 -3 -3 -53 -5 -112 -6 -68 0 -106 -4 -106 -11 0 -6 -3 -7 -7 -3 -8 8 -32
346 -26 359 8 14 41 7 54 -12z m3081 -40 c2 -22 0 -38 -3 -35 -4 2 -9 -15 -13
-37 -4 -28 -16 -50 -36 -67 -17 -15 -30 -35 -30 -45 0 -45 -114 -148 -180
-163 -8 -2 -28 -8 -45 -13 l-30 -9 30 -1 c23 -1 27 -4 15 -11 -24 -16 1 -12
63 10 60 21 113 28 67 8 -14 -6 -34 -14 -45 -19 -78 -33 -276 -59 -304 -41
-21 15 -16 61 8 78 11 8 21 21 21 28 0 13 63 28 177 43 23 3 47 11 54 19 6 8
20 14 30 14 11 0 16 5 13 14 -3 8 4 16 20 20 14 3 26 13 26 21 0 7 10 21 22
29 16 12 19 18 10 29 -9 10 -8 19 3 34 17 24 73 55 85 48 4 -3 14 15 21 40 7
25 14 45 15 45 1 0 4 -18 6 -39z m-3765 -48 c-3 -10 -5 -4 -5 12 0 17 2 24 5
18 2 -7 2 -21 0 -30z m2936 -48 c14 -10 17 -21 12 -44 -6 -27 -9 -29 -30 -21
-14 5 -37 5 -57 -1 -18 -5 -36 -9 -41 -9 -13 0 14 44 41 67 31 26 49 28 75 8z
m-2926 -17 c-3 -8 -6 -5 -6 6 -1 11 2 17 5 13 3 -3 4 -12 1 -19z m0 -50 c-3
-8 -6 -5 -6 6 -1 11 2 17 5 13 3 -3 4 -12 1 -19z m100 0 c-3 -8 -6 -5 -6 6 -1
11 2 17 5 13 3 -3 4 -12 1 -19z m-42 2 c3 -5 1 -10 -4 -10 -6 0 -11 5 -11 10
0 6 2 10 4 10 3 0 8 -4 11 -10z m1068 -49 c9 -1 17 -8 17 -17 0 -12 -8 -14
-37 -9 -36 5 -58 15 -34 15 7 0 10 4 7 9 -4 5 2 8 11 6 10 -2 26 -4 36 -4z
m1017 -46 c0 -19 51 -45 87 -45 36 0 119 -23 160 -45 18 -9 38 -13 44 -9 7 4
9 3 6 -3 -4 -6 -25 -13 -47 -17 -36 -6 -57 -26 -27 -26 8 0 6 -4 -3 -10 -10
-5 -40 -2 -84 10 -46 12 -86 16 -125 13 l-57 -5 -17 43 c-10 26 -13 47 -8 52
5 5 7 15 5 22 -3 8 7 17 23 23 39 14 43 14 43 -3z m-1150 -5 l-25 -8 28 -1
c15 -1 27 4 27 9 0 6 18 10 40 10 27 0 39 -4 38 -12 -2 -7 3 -12 10 -10 6 1
12 -2 12 -8 0 -5 -9 -10 -20 -10 -11 0 -20 7 -20 15 0 8 -4 15 -9 15 -5 0 -7
-8 -4 -18 4 -16 -1 -17 -49 -12 -40 4 -54 9 -56 23 -3 13 3 17 25 16 l28 -1
-25 -8z m147 4 c-3 -3 -12 -4 -19 -1 -8 3 -5 6 6 6 11 1 17 -2 13 -5z m1798
-21 c41 -47 95 -129 100 -155 5 -20 18 -34 45 -48 60 -31 63 -68 6 -97 -17 -9
-54 -34 -83 -55 -51 -39 -53 -39 -110 -33 -66 9 -79 14 -150 67 -29 21 -59 38
-66 38 -21 0 -40 26 -33 47 3 10 24 28 46 41 28 16 40 29 40 46 0 12 13 40 30
62 16 21 30 45 30 52 0 19 61 52 98 52 18 0 39 -8 47 -17z m-1985 -3 c0 -13
-12 -19 -26 -13 -21 8 -17 19 6 19 11 0 20 -3 20 -6z m187 -12 c-3 -8 -6 -5
-6 6 -1 11 2 17 5 13 3 -3 4 -12 1 -19z m1567 -27 c-15 -22 -31 -41 -36 -41
-12 0 -10 8 10 28 9 10 24 28 31 40 8 12 16 20 18 18 2 -2 -9 -22 -23 -45z
m396 -6 c0 -16 -6 -25 -15 -25 -28 0 -18 40 13 49 1 1 2 -10 2 -24z m1005
-265 c-3 -5 -12 -10 -18 -10 -7 0 -6 4 3 10 19 12 23 12 15 0z m-383 -56 c4
-3 0 -20 -7 -39 -8 -18 -12 -35 -9 -37 6 -7 -100 -207 -125 -235 -11 -13 -17
-23 -14 -23 3 0 0 -6 -6 -13 -6 -8 -8 -17 -5 -20 10 -9 -24 -57 -40 -57 -18 0
-43 58 -41 95 3 42 16 85 25 85 4 0 10 8 14 18 3 9 16 33 28 52 11 19 35 62
51 95 16 33 34 66 39 73 10 12 80 17 90 6z m438 -124 c0 -102 -2 -121 -17
-130 -17 -11 -17 -11 1 -6 14 5 17 2 12 -10 -3 -8 -6 -26 -6 -39 0 -16 -8 -27
-27 -34 l-28 -11 28 4 c23 3 27 0 27 -23 0 -14 -4 -21 -8 -16 -4 6 -14 9 -22
9 -8 -1 -25 -2 -38 -3 -13 0 -21 -5 -18 -10 3 -4 16 -6 30 -4 13 3 32 0 43 -6
17 -10 17 -10 -2 -12 -11 0 -36 -1 -55 -1 -33 0 -33 0 -5 -5 17 -2 34 -9 40
-14 5 -5 14 -9 20 -9 5 0 3 5 -5 10 -13 8 -13 10 2 10 12 0 16 -9 16 -35 l0
-36 -46 7 c-26 4 -55 11 -66 16 -13 7 -16 7 -12 -1 11 -17 -30 -13 -44 4 -8 9
-21 13 -36 9 -15 -4 -24 -2 -24 6 0 9 21 10 82 6 94 -8 99 4 6 15 -33 4 -64
13 -69 21 -7 10 -9 8 -9 -6 0 -42 -15 -1 -16 45 -1 44 9 66 18 39 2 -6 27 -6
68 -1 l65 8 -62 2 c-96 2 -90 -9 -92 167 l-2 154 125 0 126 0 0 -120z m-400
-65 l0 -125 -24 0 c-14 0 -27 -4 -30 -9 -4 -5 3 -7 14 -4 12 3 20 0 20 -6 0
-7 4 -9 10 -6 6 4 9 -61 8 -180 -2 -166 -10 -223 -25 -165 -3 11 -9 18 -13 15
-5 -3 -6 5 -2 17 3 13 1 19 -6 15 -5 -4 -17 -4 -26 -1 -15 6 -15 8 1 21 17 13
16 14 -6 9 -15 -3 -33 2 -49 15 -14 10 -31 19 -38 19 -8 0 -11 6 -8 15 7 17
34 21 34 5 0 -6 6 -5 14 2 11 11 6 14 -31 20 -25 4 -48 9 -51 12 -3 4 -1 23 4
44 7 28 15 38 32 40 13 2 29 -2 37 -8 9 -7 15 -8 20 0 3 5 -1 10 -9 10 -9 0
-16 4 -16 9 0 6 -9 8 -20 6 -22 -4 -26 14 -10 43 5 9 25 49 44 87 62 128 115
225 123 225 2 0 3 -56 3 -125z m-3899 48 c0 -5 3 -24 5 -43 9 -71 9 -75 -6
-75 -12 0 -16 15 -17 63 -1 35 2 62 7 62 6 0 10 -3 11 -7z m984 -23 c3 -5 2
-10 -4 -10 -5 0 -13 5 -16 10 -3 6 -2 10 4 10 5 0 13 -4 16 -10z m311 -2 c4
-7 2 -8 -4 -4 -7 4 -12 3 -12 -3 0 -6 -7 -8 -15 -5 -8 4 -15 9 -15 13 0 11 39
10 46 -1z m977 -9 c4 -14 -3 -28 -25 -47 -17 -15 -44 -40 -59 -57 l-29 -30 0
72 c0 79 0 78 76 82 24 1 33 -4 37 -20z m-959 -106 c3 -32 8 -101 12 -154 l6
-96 -33 -34 c-18 -19 -37 -33 -42 -31 -5 1 -6 -2 -3 -7 4 -5 2 -12 -4 -16 -5
-3 -10 -11 -10 -17 0 -7 6 -6 15 2 8 7 15 9 15 6 0 -12 -28 -36 -42 -36 -10 0
-10 2 1 9 9 6 10 11 2 15 -16 10 -33 -3 -27 -20 7 -19 -9 -18 -29 2 -13 14
-14 19 -3 25 9 6 6 9 -11 9 -13 0 -21 -3 -17 -7 13 -13 -57 -40 -78 -30 -13 6
-16 6 -12 -2 4 -7 -1 -11 -13 -11 -21 0 -37 -17 -27 -28 4 -3 15 -1 26 6 14 8
21 8 26 1 4 -8 9 -8 13 -1 3 6 25 13 49 16 37 4 42 3 42 -16 0 -17 -2 -18 -15
-8 -9 7 -19 9 -23 5 -4 -4 -2 -10 4 -12 7 -2 10 -13 7 -24 -5 -18 -6 -19 -19
-2 -10 14 -15 16 -25 6 -11 -11 -10 -13 4 -13 19 0 23 -15 5 -26 -6 -4 -8 -3
-5 3 10 15 -18 24 -53 16 -24 -4 -30 -11 -30 -31 0 -25 -1 -25 -14 -6 -9 12
-11 23 -5 30 5 6 6 14 2 18 -4 4 7 6 23 4 33 -2 94 19 94 33 0 5 -16 3 -35 -6
-20 -8 -33 -10 -30 -5 3 6 1 10 -4 10 -6 0 -11 -4 -11 -10 0 -16 -22 -12 -36
7 -9 13 -9 22 -2 31 8 9 7 11 -6 6 -9 -3 -16 -10 -16 -15 0 -5 -9 -9 -20 -9
-11 0 -20 -4 -20 -10 0 -5 3 -10 8 -10 12 0 13 -68 1 -76 -6 -3 -10 1 -9 12 1
11 2 24 1 31 -1 12 -26 12 -38 -1 -4 -4 -2 -6 6 -4 8 2 17 -5 19 -16 2 -11 0
-16 -7 -12 -6 4 -11 1 -11 -7 0 -9 -9 -13 -25 -12 -14 2 -27 -1 -31 -6 -3 -5
2 -9 11 -9 9 0 15 -5 13 -12 -5 -14 40 -64 54 -60 5 1 7 -2 4 -7 -3 -5 0 -11
8 -14 14 -6 16 9 3 30 -4 6 -2 15 4 19 7 4 9 3 5 -4 -3 -6 -1 -14 4 -17 8 -5
9 8 6 42 -4 33 -3 43 4 33 7 -11 10 -12 10 -2 0 10 4 9 16 -3 9 -9 23 -14 32
-10 12 4 13 3 2 -10 -10 -13 -9 -15 9 -15 11 0 21 -5 21 -11 0 -5 -4 -7 -10
-4 -14 8 -13 -8 1 -22 9 -9 7 -12 -9 -10 -11 0 -23 9 -25 19 -3 10 -13 18 -22
18 -11 0 -15 -5 -12 -14 3 -8 0 -17 -7 -19 -20 -8 -14 -44 9 -61 27 -21 38
-20 26 2 -6 12 -6 23 0 33 8 12 10 12 8 -1 -3 -29 1 -40 15 -40 18 0 30 -30
17 -43 -6 -6 0 -22 17 -43 16 -21 29 -29 33 -22 4 6 6 -1 6 -15 -2 -24 -17
-40 -17 -18 0 15 -91 116 -101 113 -5 -1 -8 1 -7 5 3 10 -128 148 -160 169
-14 10 -21 11 -17 3 5 -8 4 -10 -4 -5 -12 8 -64 -28 -54 -38 10 -10 45 -7 38
3 -3 5 -1 12 4 15 5 4 8 -2 7 -11 -2 -9 9 -28 23 -43 14 -14 36 -39 48 -55 78
-105 93 -126 93 -131 0 -3 6 -11 13 -19 35 -37 79 -105 139 -215 23 -43 40
-90 32 -90 -2 0 -15 26 -30 58 -14 31 -38 68 -53 82 -15 14 -21 21 -14 16 22
-15 15 9 -12 38 -13 14 -21 26 -17 26 4 1 -3 9 -16 20 -13 10 -24 23 -25 27
-1 4 -6 7 -10 5 -5 -1 -6 2 -3 7 4 5 -1 14 -10 19 -9 5 -15 12 -15 15 3 25 0
31 -10 17 -9 -13 -10 -13 -6 1 9 27 -21 60 -51 56 -31 -4 -38 -19 -17 -37 11
-9 15 -9 15 -1 0 7 5 9 11 5 8 -5 8 -9 -1 -14 -9 -6 -6 -17 15 -44 15 -19 32
-34 38 -33 7 1 11 -4 9 -11 -1 -8 19 -44 46 -80 51 -70 70 -104 120 -212 69
-149 78 -180 79 -280 1 -52 -1 -82 -3 -65 -3 17 -8 37 -11 45 -9 23 -11 29
-32 122 -10 45 -22 78 -44 125 -6 13 -16 19 -26 16 -13 -4 -14 -3 -2 5 13 9
12 16 -4 46 -10 19 -23 32 -28 29 -6 -3 -7 -1 -3 5 4 6 -18 48 -47 94 -58 90
-94 149 -144 237 -33 57 -44 90 -20 56 10 -13 16 -15 21 -6 4 6 12 9 17 6 5
-4 9 -1 9 5 0 6 5 8 12 4 7 -4 8 -3 4 5 -4 6 -11 9 -16 6 -9 -5 -32 18 -29 31
4 21 -2 25 -18 13 -15 -13 -15 -12 -5 8 9 16 9 24 0 29 -6 4 -8 3 -4 -4 3 -6
1 -14 -5 -18 -8 -4 -9 -3 -5 4 11 19 -30 51 -58 46 -14 -2 -26 0 -26 5 0 23
107 114 122 105 5 -3 7 14 4 43 -3 26 -11 131 -17 233 -5 102 -12 194 -15 206
-5 20 -1 21 133 28 261 13 328 17 332 22 17 17 30 -2 35 -53z m-633 -103 c4
-63 10 -157 13 -208 5 -83 4 -93 -10 -90 -10 2 -19 -4 -21 -12 -4 -13 -3 -13
6 0 9 13 11 13 11 -2 0 -17 -8 -21 -40 -19 -9 0 -10 -2 -3 -5 7 -3 9 -12 6
-20 -4 -12 -8 -12 -21 -2 -12 10 -14 10 -8 1 4 -7 3 -13 -3 -13 -5 0 -14 6
-18 13 -6 11 -17 10 -53 -4 -25 -10 -37 -18 -27 -18 9 -1 17 -5 17 -11 0 -5 5
-10 11 -10 8 0 8 4 1 13 -8 9 -3 12 19 12 24 0 28 -3 23 -20 -4 -16 -3 -17 5
-5 10 13 12 13 22 0 9 -13 10 -13 6 2 -5 13 3 17 39 20 39 3 43 1 38 -16 -4
-12 -2 -16 5 -12 7 5 11 -1 11 -14 0 -12 -4 -18 -10 -15 -5 3 -10 -1 -10 -10
0 -10 5 -13 12 -9 7 4 8 3 4 -5 -6 -9 -11 -9 -22 0 -11 9 -14 9 -14 0 0 -7 -6
-9 -12 -6 -7 4 -2 -2 12 -13 15 -13 27 -17 31 -10 4 7 9 7 13 -1 4 -6 18 -9
32 -7 16 3 22 1 18 -6 -5 -7 -2 -9 8 -6 8 4 15 1 15 -6 0 -13 -27 -14 -69 -2
-35 10 -68 -8 -68 -39 0 -13 6 -25 12 -27 9 -3 8 -9 -5 -22 -9 -10 -17 -13
-17 -7 0 7 -8 7 -27 0 -14 -5 -32 -8 -38 -6 -6 3 -12 -4 -12 -15 -2 -16 3 -18
30 -13 18 3 70 9 117 12 70 4 88 3 98 -10 9 -11 10 -17 2 -22 -8 -5 -7 -11 1
-22 10 -12 10 -16 -2 -23 -8 -6 -15 -6 -17 0 -2 6 -15 7 -29 4 -19 -5 -24 -4
-18 6 15 24 -19 31 -38 7 -15 -17 -18 -18 -13 -4 4 12 -1 20 -17 26 -17 7 -13
8 21 8 23 0 45 -4 48 -8 8 -14 40 -11 53 5 9 11 7 15 -13 20 -14 3 -40 4 -58
1 -18 -2 -69 -9 -113 -15 -103 -14 -117 -19 -108 -33 15 -24 12 -38 -8 -32
-10 4 -19 2 -19 -4 0 -14 66 -44 79 -36 6 3 11 2 11 -3 0 -11 -26 -25 -56 -31
-4 0 -1 -8 6 -16 7 -8 16 -13 20 -10 4 3 10 -4 13 -15 7 -26 -5 -26 -21 0 -7
12 -18 18 -24 14 -7 -5 -8 -2 -3 7 7 11 5 11 -9 -1 -17 -13 -18 -12 -15 5 3
11 10 21 17 21 25 3 26 6 7 13 -11 5 -25 4 -32 -1 -7 -6 -13 -7 -13 -3 0 4 8
14 18 22 16 14 16 14 -1 9 -12 -4 -16 -2 -11 6 5 8 2 9 -10 5 -10 -4 -22 -7
-26 -7 -5 0 -15 -10 -21 -22 -11 -21 -11 -22 5 -9 15 13 19 13 27 0 5 -8 9
-19 9 -25 0 -13 -28 -27 -40 -19 -4 3 -11 -2 -14 -10 -5 -13 -10 -14 -28 -4
-16 9 -23 9 -26 0 -2 -6 -10 -11 -17 -11 -7 0 -15 -4 -17 -9 -1 -5 -16 -12
-33 -16 -26 -5 -25 -3 13 17 24 13 40 27 36 31 -4 3 1 10 11 14 18 6 18 7 -1
15 -12 5 -5 6 20 2 31 -4 38 -3 33 9 -3 8 -1 19 5 25 6 6 15 20 22 33 12 24
36 37 36 20 0 -6 -7 -11 -17 -11 -9 0 -14 -3 -10 -6 13 -13 42 7 42 30 0 13
-2 24 -5 24 -22 -2 -29 4 -23 20 6 16 5 16 -12 -1 -14 -15 -20 -16 -27 -5 -10
13 -9 6 3 -41 2 -9 -5 -17 -16 -19 -16 -4 -17 -2 -7 11 8 10 9 17 3 21 -6 4
-8 13 -4 21 3 10 -2 15 -16 15 -12 0 -21 -6 -21 -12 -1 -7 -10 -2 -21 11 -11
14 -17 31 -14 42 8 23 -10 25 -19 3 -4 -10 1 -25 10 -36 29 -31 6 -33 -28 -2
-18 16 -25 20 -15 8 15 -18 16 -23 3 -33 -8 -7 -16 -25 -18 -39 -2 -15 -7 25
-11 88 -4 63 -12 167 -18 230 -6 63 -10 141 -8 173 2 31 1 57 -2 57 -4 0 -10
48 -14 108 -4 59 -9 114 -10 124 -4 22 41 30 169 30 56 0 133 3 171 6 39 4 90
7 115 7 l45 0 6 -115z m2559 49 c0 -6 8 -8 19 -4 34 10 46 -16 46 -101 0 -49
-5 -85 -13 -94 -6 -8 -21 -26 -31 -40 -17 -22 -22 -23 -40 -12 -24 14 -34 16
-27 4 2 -4 -10 -14 -27 -21 -18 -7 -40 -17 -50 -22 -14 -8 -28 -6 -54 6 -31
15 -34 19 -28 47 22 98 100 208 148 208 14 0 29 5 32 10 3 6 -1 10 -10 10 -9
0 -13 5 -10 10 8 13 45 13 45 -1z m-520 -40 c0 -11 5 -17 10 -14 6 3 10 -1 10
-9 0 -9 5 -16 10 -16 6 0 10 -9 10 -20 0 -11 4 -20 9 -20 5 0 12 -12 15 -27 4
-16 9 -37 12 -48 4 -16 3 -17 -5 -5 -10 13 -11 13 -11 0 -1 -12 -3 -12 -14 3
-7 9 -18 17 -25 17 -15 0 -14 77 2 84 6 3 2 3 -10 0 -18 -4 -23 -1 -23 13 0
10 -3 28 -6 41 -4 13 -2 22 5 22 6 0 11 -9 11 -21z m950 -74 c0 -8 -4 -15 -10
-15 -5 0 -10 7 -10 15 0 8 5 15 10 15 6 0 10 -7 10 -15z m410 -36 c0 9 6 11
18 5 9 -4 35 -8 57 -9 23 0 40 -5 40 -12 0 -6 4 -15 9 -20 5 -4 6 -3 3 3 -4 7
3 12 18 12 20 0 23 -3 14 -14 -14 -17 -41 -18 -58 -1 -11 10 -13 10 -7 0 4 -7
2 -13 -3 -13 -6 0 -11 8 -12 18 0 12 -2 13 -6 3 -9 -23 -43 -52 -63 -54 -22
-1 -18 -42 7 -69 9 -10 12 -18 7 -18 -5 0 0 -8 11 -16 19 -15 19 -15 -10 -9
-28 5 -28 5 -7 -6 16 -9 28 -9 47 -1 13 6 27 8 29 3 3 -4 -24 -19 -59 -34 -36
-14 -65 -21 -65 -17 0 5 14 12 31 15 l32 7 -32 15 c-32 16 -40 40 -19 61 8 8
9 15 3 20 -6 4 -10 19 -11 35 0 25 14 34 49 28 4 0 7 4 7 9 0 6 -6 10 -12 9
-37 -4 -48 2 -44 24 3 12 5 27 5 32 1 6 6 3 11 -5 7 -12 10 -12 10 -1z m210
-34 c0 -9 -9 -15 -22 -14 -17 1 -19 2 -5 6 9 2 17 9 17 14 0 5 2 9 5 9 3 0 5
-7 5 -15z m-2326 -7 c-3 -4 -9 -8 -15 -8 -5 0 -9 4 -9 8 0 5 7 9 15 9 8 0 12
-4 9 -9z m-29 -28 c3 -6 -1 -7 -9 -4 -18 7 -21 14 -7 14 6 0 13 -4 16 -10z
m2235 -2 c0 -4 -9 -8 -21 -8 -11 0 -18 4 -15 8 3 5 12 9 21 9 8 0 15 -4 15 -9z
m-2785 -8 c3 -6 -1 -7 -9 -4 -18 7 -21 14 -7 14 6 0 13 -4 16 -10z m458 -9 c3
-12 -3 -27 -14 -37 -10 -9 -19 -13 -19 -9 0 5 -3 6 -6 3 -3 -4 -1 -16 5 -27
10 -17 9 -20 -4 -15 -20 8 -19 36 3 60 10 11 17 25 14 32 -2 6 1 12 6 12 5 0
12 -9 15 -19z m66 2 c0 -5 -4 -17 -9 -28 -8 -17 -8 -16 -7 8 1 15 5 27 9 27 4
0 8 -3 7 -7z m138 -85 c-2 -18 -4 -6 -4 27 0 33 2 48 4 33 2 -15 2 -42 0 -60z
m2083 75 c0 -5 -11 -9 -25 -9 -14 -1 -22 2 -19 7 6 11 44 12 44 2z m156 -33
l2 -35 -5 33 c-4 30 -7 33 -30 28 -17 -5 -22 -3 -18 4 4 6 17 10 28 8 18 -2
22 -10 23 -38z m-2916 12 c0 -4 -9 -8 -20 -8 -11 0 -20 4 -20 8 0 4 9 8 20 8
11 0 20 -4 20 -8z m2830 -9 c0 -3 -7 -3 -15 1 -8 3 -15 1 -15 -3 0 -14 30 -21
58 -15 15 4 24 4 20 0 -12 -14 -77 -25 -75 -12 2 11 -6 12 -33 2 -8 -3 -22 -1
-30 4 -13 9 -13 11 0 20 8 6 23 8 32 6 10 -2 20 0 23 5 6 8 35 2 35 -8z
m-2890 -33 c-6 -12 -14 -20 -17 -17 -2 3 1 14 8 26 17 26 24 19 9 -9z m699
-15 l0 -20 -9 20 c-5 11 -9 27 -9 35 -1 13 0 13 9 0 5 -8 9 -24 9 -35z m-642
29 c-3 -3 -12 -4 -19 -1 -8 3 -5 6 6 6 11 1 17 -2 13 -5z m498 -41 c-5 -21 -8
-41 -7 -44 0 -3 -5 -6 -13 -6 -10 0 -11 5 -4 19 6 12 6 18 -1 18 -5 0 -9 12
-9 28 2 23 2 24 6 4 5 -27 23 -19 23 10 0 12 3 19 6 15 4 -3 3 -23 -1 -44z
m99 18 c3 -5 -1 -11 -9 -14 -9 -4 -12 -1 -8 9 6 16 10 17 17 5z m-692 -31
c-12 -5 -39 -11 -59 -14 -34 -3 -35 -2 -18 10 10 8 37 14 59 13 35 0 38 -2 18
-9z m57 -13 c0 -7 -3 -6 -6 2 -4 11 -10 8 -25 -10 -11 -13 -17 -18 -13 -11 5
10 -1 11 -22 7 -27 -5 -26 -5 4 7 17 7 35 16 39 20 9 10 24 0 23 -15z m486 14
c3 -5 0 -13 -6 -17 -7 -4 -9 -3 -5 4 3 5 0 13 -6 15 -9 4 -10 6 -1 6 6 1 14
-3 18 -8z m115 2 c0 -5 -5 -15 -10 -23 -7 -12 -9 -10 -7 8 1 19 17 33 17 15z
m164 -29 c3 -8 2 -12 -4 -9 -6 3 -10 10 -10 16 0 14 7 11 14 -7z m1976 6 c0
-5 -4 -10 -10 -10 -5 0 -10 5 -10 10 0 6 5 10 10 10 6 0 10 -4 10 -10z m-3373
-25 c-4 -8 -14 -15 -23 -15 -16 0 -16 2 2 19 21 21 29 19 21 -4z m298 15 c3
-5 2 -10 -4 -10 -5 0 -13 5 -16 10 -3 6 -2 10 4 10 5 0 13 -4 16 -10z m959 1
c3 -5 -3 -11 -13 -14 -14 -3 -18 -1 -14 9 6 16 19 18 27 5z m66 -23 c0 -19
-16 -5 -17 14 -2 18 0 20 7 8 5 -8 10 -18 10 -22z m27 0 c-3 -7 -5 -2 -5 12 0
14 2 19 5 13 2 -7 2 -19 0 -25z m-797 12 l25 -8 -25 0 c-14 0 -34 3 -45 8
l-20 9 20 -1 c11 0 31 -4 45 -8z m-70 -15 c0 -8 -2 -15 -4 -15 -2 0 -6 7 -10
15 -3 8 -1 15 4 15 6 0 10 -7 10 -15z m713 -5 c-3 -11 -9 -20 -14 -20 -14 0
-11 28 4 33 6 3 13 6 14 6 0 1 -1 -8 -4 -19z m1907 0 c20 -6 17 -8 -16 -6 -23
0 -40 4 -37 9 5 8 19 8 53 -3z m53 -4 c4 -10 1 -13 -8 -9 -8 3 -12 9 -9 14 7
12 11 11 17 -5z m93 0 c10 -8 16 -18 11 -22 -4 -4 -7 -2 -7 4 0 7 -16 12 -39
12 -22 0 -43 5 -46 10 -10 16 58 12 81 -4z m-2711 -6 c3 -5 3 -15 -1 -21 -6
-11 -23 6 -24 24 0 10 18 9 25 -3z m572 4 c-3 -3 -12 -4 -19 -1 -8 3 -5 6 6 6
11 1 17 -2 13 -5z m122 -11 c-12 -15 -12 -16 4 -10 9 3 17 2 17 -3 0 -16 -26
-11 -41 7 -8 10 -9 14 -2 10 6 -4 14 -3 18 3 3 5 9 10 12 10 3 0 -1 -8 -8 -17z
m-852 -13 c1 -11 -2 -18 -8 -15 -5 4 -9 1 -9 -4 0 -6 -5 -11 -10 -11 -6 0 -3
11 6 25 20 30 19 30 21 5z m207 12 c-6 -4 -13 -14 -16 -22 -3 -10 -6 -8 -10 8
-5 18 -2 22 15 22 13 0 17 -3 11 -8z m576 -3 c0 -5 -4 -8 -9 -4 -5 3 -12 1
-16 -5 -3 -5 -12 -10 -18 -10 -7 0 -3 7 7 15 23 18 36 19 36 4z m-680 -6 c0
-5 -5 -15 -11 -23 -9 -13 -10 -13 -6 2 3 9 1 19 -6 22 -7 2 -4 5 6 5 9 1 17
-2 17 -6z m30 3 c0 -3 -4 -8 -10 -11 -5 -3 -10 -1 -10 4 0 6 5 11 10 11 6 0
10 -2 10 -4z m587 -2 c-3 -3 -12 -4 -19 -1 -8 3 -5 6 6 6 11 1 17 -2 13 -5z
m233 -29 c0 -19 -4 -35 -9 -35 -7 0 -8 53 -2 68 5 12 11 -5 11 -33z m17 -42
c-2 -16 -4 -3 -4 27 0 30 2 43 4 28 2 -16 2 -40 0 -55z m2027 50 c9 4 11 -2 8
-19 -2 -13 -11 -24 -19 -24 -7 0 -24 -6 -36 -13 -13 -9 -34 -11 -52 -7 -28 6
-29 7 -8 14 13 4 26 5 31 3 4 -3 23 2 42 10 19 8 29 17 23 20 -7 3 -12 14 -12
26 1 18 2 19 6 4 3 -10 10 -16 17 -14z m138 15 c-9 -9 -15 -9 -24 0 -9 9 -7
12 12 12 19 0 21 -3 12 -12z m-2892 -13 c0 -2 -6 -5 -13 -8 -8 -3 -14 1 -14 8
0 7 6 11 14 8 7 -3 13 -6 13 -8z m580 0 c10 -13 9 -15 -11 -14 -13 0 -18 3
-10 6 11 5 11 7 0 14 -8 5 -9 9 -3 9 6 0 17 -7 24 -15z m2123 -2 c29 -9 19
-23 -16 -23 -18 0 -38 -5 -45 -12 -9 -9 -12 -9 -12 1 0 11 -3 11 -17 0 -16
-13 -17 -12 -5 3 8 9 19 15 27 12 7 -3 16 -1 20 5 3 6 -2 11 -12 11 -15 0 -16
2 -3 10 8 5 22 7 30 4 8 -4 23 -9 33 -11z m-2878 -3 c3 -5 1 -10 -4 -10 -6 0
-11 5 -11 10 0 6 2 10 4 10 3 0 8 -4 11 -10z m626 -17 c-12 -20 -14 -14 -5 12
4 9 9 14 11 11 3 -2 0 -13 -6 -23z m1809 -101 c-12 -54 -27 -117 -35 -142 -7
-25 -23 -90 -35 -145 -12 -55 -29 -122 -36 -150 l-14 -50 5 50 c3 27 9 63 15
80 5 16 26 102 46 190 62 275 69 300 72 282 2 -11 -6 -62 -18 -115z m710 112
c0 -6 -13 -9 -31 -6 -20 3 -34 0 -40 -9 -7 -11 -9 -11 -9 3 0 9 6 18 13 21 21
8 67 2 67 -9z m-3052 -7 c10 4 13 2 8 -5 -3 -6 -2 -13 3 -17 5 -3 14 2 19 11
8 15 10 15 15 0 4 -10 3 -15 -2 -11 -5 3 -11 -1 -14 -7 -3 -10 -7 -10 -18 -2
-8 6 -21 10 -29 9 -10 -2 -17 5 -17 18 -2 14 1 17 9 9 6 -6 17 -8 26 -5z m600
-5 c-9 -10 -13 -11 -19 0 -6 9 -9 5 -10 -12 0 -14 -3 -19 -6 -12 -8 21 5 41
26 39 15 -1 17 -4 9 -15z m-503 -2 c3 -5 -1 -10 -10 -10 -9 0 -13 5 -10 10 3
6 8 10 10 10 2 0 7 -4 10 -10z m630 0 c-3 -5 -11 -10 -16 -10 -6 0 -7 5 -4 10
3 6 11 10 16 10 6 0 7 -4 4 -10z m-882 -15 c-3 -9 -8 -14 -10 -11 -3 3 -2 9 2
15 9 16 15 13 8 -4z m787 -19 c0 -6 -5 -4 -10 4 -5 8 -10 10 -10 4 0 -6 -7
-11 -15 -11 -18 0 -19 9 -3 25 13 13 38 -1 38 -22z m2406 -2 c-11 -7 -22 -12
-25 -9 -2 3 4 12 15 19 10 8 21 12 24 9 3 -2 -4 -11 -14 -19z m-2307 4 c-3
-26 1 -38 14 -35 7 1 11 -6 9 -18 -3 -16 -1 -17 9 -8 9 9 8 18 -6 40 -10 15
-12 22 -4 16 16 -15 33 -17 24 -3 -3 6 -2 10 3 10 5 0 10 -49 11 -109 l2 -108
-25 0 c-19 0 -26 5 -26 18 0 18 -1 18 -19 2 -16 -13 -17 -20 -9 -39 6 -13 14
-21 18 -19 4 2 7 -1 7 -8 0 -7 -8 -13 -18 -13 -11 0 -16 7 -14 18 5 22 -24 53
-37 40 -11 -11 1 -44 13 -36 5 3 6 -3 2 -12 -6 -17 -7 -17 -17 1 -6 10 -20 27
-30 38 -17 18 -18 20 -2 14 12 -5 24 1 38 15 11 13 16 17 12 9 -4 -9 -2 -12 7
-9 8 3 13 10 12 15 -1 6 10 9 25 7 36 -4 57 13 40 34 -10 13 -10 14 0 8 6 -4
12 -3 12 1 0 5 -6 15 -12 22 -10 11 -10 14 0 18 19 7 14 22 -7 20 -11 0 -17
-6 -14 -14 3 -7 1 -13 -4 -13 -5 0 -9 -10 -10 -21 -2 -20 -1 -21 12 -3 12 17
13 17 12 -8 -2 -23 -6 -27 -24 -23 -13 2 -25 -1 -28 -6 -4 -5 -13 -9 -21 -9
-10 0 -12 5 -8 13 5 8 2 8 -9 -2 -9 -7 -18 -11 -18 -7 -1 3 -2 10 -3 15 -2 19
-16 23 -33 10 -16 -13 -17 -12 -5 3 13 16 77 18 102 3 9 -6 12 1 9 23 -1 4 -4
6 -8 5 -4 -1 -8 5 -8 13 0 9 7 14 17 11 10 -3 16 3 17 15 2 16 -1 17 -13 8 -8
-7 -14 -11 -15 -9 -6 31 -6 38 3 33 5 -3 9 0 7 7 -2 21 0 39 6 39 3 0 5 -6 4
-12z m-39 -19 c0 -5 -4 -9 -8 -9 -5 0 -9 7 -9 15 0 8 4 12 9 9 4 -3 8 -9 8
-15z m149 3 c7 -14 6 -19 -4 -19 -7 0 -13 9 -12 19 1 10 2 18 4 18 1 0 7 -8
12 -18z m-984 -70 c-3 -3 -5 0 -5 6 0 7 -7 12 -15 12 -8 0 -15 5 -15 10 0 6 6
10 13 10 9 0 8 3 -2 9 -8 5 -10 14 -6 22 6 9 13 0 22 -26 7 -21 11 -41 8 -43z
m-1068 56 c-2 -7 3 -22 11 -33 14 -17 13 -17 -7 1 -13 12 -20 27 -17 33 10 15
19 14 13 -1z m1809 -13 c-3 -8 2 -19 12 -24 9 -6 12 -11 7 -11 -6 0 -17 6 -23
12 -10 10 -14 8 -18 -10 -5 -18 -24 -33 -24 -18 0 13 28 55 33 49 4 -3 7 -1 7
5 0 7 3 12 6 12 3 0 4 -7 0 -15z m44 -5 c6 9 13 9 26 2 19 -10 19 -11 0 -18
-21 -8 -48 5 -53 27 -3 8 1 6 8 -5 8 -14 13 -15 19 -6z m167 -312 c-1 -62 -3
-12 -3 112 0 124 2 174 3 113 2 -62 2 -164 0 -225z m-2132 312 c3 -5 1 -10 -4
-10 -6 0 -11 5 -11 10 0 6 2 10 4 10 3 0 8 -4 11 -10z m4115 -1 c0 -5 5 -7 10
-4 6 3 10 1 10 -5 0 -7 -8 -9 -21 -5 -13 5 -25 2 -30 -6 -4 -7 -11 -10 -14 -7
-9 9 16 37 33 38 6 0 12 -5 12 -11z m-3039 -22 c-10 -9 -11 -8 -5 6 3 10 9 15
12 12 3 -3 0 -11 -7 -18z m239 13 c-20 -13 -33 -13 -25 0 3 6 14 10 23 10 15
0 15 -2 2 -10z m887 -27 c-3 -10 -5 -4 -5 12 0 17 2 24 5 18 2 -7 2 -21 0 -30z
m-1427 16 c-12 -9 -11 -10 8 -6 12 3 22 1 22 -4 0 -4 6 -6 14 -3 8 3 17 1 21
-5 3 -6 0 -11 -7 -12 -7 0 -26 -3 -41 -5 -17 -3 -26 -1 -23 5 4 5 2 12 -4 16
-13 8 -3 25 13 25 7 0 6 -4 -3 -11z m356 -9 c0 -12 -4 -16 -9 -11 -5 5 -6 14
-3 20 10 15 12 14 12 -9z m711 -12 c-3 -8 -6 -5 -6 6 -1 11 2 17 5 13 3 -3 4
-12 1 -19z m2158 12 c-3 -5 -11 -10 -16 -10 -6 0 -7 5 -4 10 3 6 11 10 16 10
6 0 7 -4 4 -10z m-3935 -35 c0 -5 -5 -3 -10 5 -5 8 -10 20 -10 25 0 6 5 3 10
-5 5 -8 10 -19 10 -25z m1895 15 c-26 -11 -48 -12 -41 -2 2 4 17 8 33 9 24 1
25 0 8 -7z m227 -15 c4 -21 3 -23 -13 -15 -25 14 -37 35 -16 27 10 -3 17 -2
17 3 0 19 8 10 12 -15z m-2194 -2 c-11 -14 -68 -18 -68 -5 0 15 11 20 45 19
27 -1 32 -4 23 -14z m29 -5 c-3 -8 -6 -5 -6 6 -1 11 2 17 5 13 3 -3 4 -12 1
-19z m1303 7 c0 -8 9 -15 20 -15 11 0 20 -7 20 -15 0 -17 16 -20 24 -6 4 5 0
12 -6 14 -7 3 -3 6 9 6 16 1 20 -3 16 -19 -4 -16 -12 -20 -41 -17 -30 2 -38 8
-49 35 -8 19 -9 32 -3 32 5 0 10 -7 10 -15z m2802 1 c11 -17 10 -48 -2 -41 -5
3 -10 15 -10 26 0 11 -4 17 -10 14 -5 -3 -17 -2 -26 3 -14 8 -11 10 12 10 16
0 32 -5 36 -12z m-4232 -6 c0 -5 -7 -10 -16 -10 -8 0 -12 5 -9 10 3 6 10 10
16 10 5 0 9 -4 9 -10z m2417 -12 c-3 -8 -6 -5 -6 6 -1 11 2 17 5 13 3 -3 4
-12 1 -19z m-2223 -13 c-4 -9 0 -15 10 -15 9 0 16 6 16 13 0 8 7 14 15 14 8 0
13 -2 10 -5 -2 -2 2 -11 10 -19 15 -15 21 -73 8 -73 -5 -1 -30 -3 -58 -4 -46
-4 -48 -3 -30 11 20 15 20 15 -2 10 -25 -6 -26 -5 -17 17 3 9 11 13 17 9 7 -4
8 0 4 12 -4 9 -2 24 4 31 15 18 20 18 13 -1z m4016 5 c0 -5 -5 -10 -11 -10 -5
0 -7 5 -4 10 3 6 8 10 11 10 2 0 4 -4 4 -10z m-2200 -10 c0 -5 -8 -10 -17 -10
-15 0 -16 2 -3 10 19 12 20 12 20 0z m57 4 c-3 -4 -2 -15 3 -24 8 -15 6 -17
-11 -13 -16 4 -18 8 -7 14 7 5 9 9 5 9 -9 0 1 20 10 20 4 0 3 -3 0 -6z m569
-20 c-3 -8 4 -19 15 -25 11 -6 18 -13 15 -16 -8 -9 -47 28 -40 38 3 5 0 9 -5
9 -6 0 -11 4 -11 10 0 5 7 7 16 3 8 -3 13 -12 10 -19z m1164 22 c0 -2 -7 -7
-16 -10 -8 -3 -12 -2 -9 4 6 10 25 14 25 6z m330 -6 c0 -5 -5 -10 -11 -10 -5
0 -7 5 -4 10 3 6 8 10 11 10 2 0 4 -4 4 -10z m-1836 -32 c-4 -14 -2 -18 5 -14
18 11 13 0 -6 -15 -10 -7 -15 -9 -11 -5 4 5 3 15 -2 21 -12 15 -2 48 11 39 6
-3 7 -15 3 -26z m-1477 16 c-3 -3 -12 -4 -19 -1 -8 3 -5 6 6 6 11 1 17 -2 13
-5z m3078 -4 c3 -5 2 -10 -4 -10 -5 0 -13 5 -16 10 -3 6 -2 10 4 10 5 0 13 -4
16 -10z m319 -11 c-3 -5 -10 -7 -15 -3 -5 3 -7 10 -3 15 3 5 10 7 15 3 5 -3 7
-10 3 -15z m-2214 -9 c0 -11 -4 -20 -10 -20 -5 0 -10 9 -10 20 0 11 5 20 10
20 6 0 10 -9 10 -20z m371 3 c13 -16 12 -17 -3 -4 -14 11 -18 11 -18 1 0 -8
-3 -11 -6 -7 -5 5 3 27 10 27 2 0 10 -8 17 -17z m1700 7 c10 0 19 -4 19 -10 0
-5 -11 -9 -25 -8 -14 1 -25 7 -25 13 0 5 -5 3 -10 -5 -8 -13 -10 -12 -10 4 0
12 5 16 16 12 9 -3 24 -6 35 -6z m174 -11 c-10 -15 -25 -10 -19 6 4 8 10 12
15 9 5 -3 7 -10 4 -15z m-2774 2 c0 8 5 1 11 -16 6 -16 15 -33 20 -36 5 -3 2
-9 -7 -12 -9 -4 -13 -3 -10 3 3 6 1 10 -5 10 -6 0 -8 5 -4 12 5 7 2 9 -9 5 -9
-3 -18 1 -21 9 -11 27 -7 37 9 24 12 -10 15 -10 16 1z m2136 -6 c0 -8 -4 -12
-9 -9 -5 3 -6 10 -3 15 9 13 12 11 12 -6z m523 5 c0 -5 -4 -10 -10 -10 -5 0
-10 5 -10 10 0 6 5 10 10 10 6 0 10 -4 10 -10z m-3351 -46 c-6 -7 -15 -12 -19
-9 -5 3 -11 1 -15 -5 -10 -16 -25 -12 -19 5 4 8 15 15 25 15 10 0 19 5 19 11
0 5 5 7 10 4 8 -5 7 -11 -1 -21z m1385 10 c3 -8 2 -12 -4 -9 -6 3 -10 10 -10
16 0 14 7 11 14 -7z m183 -4 c2 -24 -32 -46 -43 -28 -4 6 3 19 16 30 27 22 25
22 27 -2z m1218 10 c-4 -6 -1 -18 7 -27 12 -15 11 -15 -9 -3 -16 11 -19 17
-11 27 13 16 22 17 13 3z m285 0 c0 -5 -5 -10 -11 -10 -5 0 -7 5 -4 10 3 6 8
10 11 10 2 0 4 -4 4 -10z m271 -7 c13 -15 12 -15 -11 -3 -34 17 -36 20 -18 20
9 0 22 -7 29 -17z m74 7 c3 -6 -1 -7 -9 -4 -18 7 -21 14 -7 14 6 0 13 -4 16
-10z m49 -45 c2 -13 -1 -22 -6 -19 -5 3 -7 12 -4 19 7 19 -5 27 -21 14 -9 -9
-17 -8 -28 1 -8 6 -20 8 -26 4 -7 -4 -9 -3 -5 4 3 5 3 12 -1 15 -5 2 -1 2 7
-1 47 -14 50 -14 50 3 0 15 1 15 16 1 9 -9 17 -27 18 -41z m-3726 26 c-7 -11
-16 -17 -20 -14 -10 5 10 33 23 33 5 0 4 -9 -3 -19z m1494 12 c-6 -3 -9 -10
-5 -16 4 -7 -1 -6 -10 2 -21 17 -21 17 6 18 12 0 16 -1 9 -4z m688 -35 c0 -5
-7 -2 -16 6 -8 9 -20 16 -25 16 -5 0 -9 5 -9 10 0 6 11 3 25 -6 14 -9 25 -21
25 -26z m-1846 24 c3 -5 -1 -9 -9 -9 -8 0 -12 4 -9 9 3 4 7 8 9 8 2 0 6 -4 9
-8z m1789 -7 c4 -8 1 -17 -5 -21 -6 -4 -8 -3 -4 4 3 6 -2 15 -11 21 -16 9 -16
10 -2 11 9 0 19 -7 22 -15z m-2643 -5 c0 -5 -7 -10 -16 -10 -8 0 -12 5 -9 10
3 6 10 10 16 10 5 0 9 -4 9 -10z m249 -6 c21 19 21 19 21 -7 0 -21 -4 -24 -22
-20 -28 7 -48 22 -48 36 0 6 6 2 14 -8 14 -19 15 -19 35 -1z m1951 6 c0 -5 -2
-10 -4 -10 -3 0 -8 5 -11 10 -3 6 -1 10 4 10 6 0 11 -4 11 -10z m20 -46 c0
-50 -2 -55 -17 -49 -10 4 -24 8 -30 8 -9 0 -7 6 5 17 15 15 18 16 24 1 6 -13
7 -12 7 4 -2 38 1 75 6 75 3 0 5 -25 5 -56z m61 43 c-6 -8 -7 -18 -3 -22 4 -5
1 -5 -6 -1 -10 6 -10 11 -1 22 6 8 14 14 16 14 3 0 0 -6 -6 -13z m299 9 c0
-11 -19 -15 -25 -6 -3 5 1 10 9 10 9 0 16 -2 16 -4z m1417 -2 c-3 -3 -12 -4
-19 -1 -8 3 -5 6 6 6 11 1 17 -2 13 -5z m93 -4 c0 -5 -7 -10 -15 -10 -8 0 -15
5 -15 10 0 6 7 10 15 10 8 0 15 -4 15 -10z m-3263 -42 c-3 -7 -5 -2 -5 12 0
14 2 19 5 13 2 -7 2 -19 0 -25z m43 28 c0 -2 -7 -6 -15 -10 -8 -3 -15 -1 -15
4 0 6 7 10 15 10 8 0 15 -2 15 -4z m154 -10 c7 3 13 -2 13 -10 0 -11 -5 -13
-19 -5 -10 5 -18 15 -17 22 0 9 2 9 5 0 3 -7 11 -10 18 -7z m1006 4 c5 8 9 7
13 -5 4 -9 3 -13 -3 -10 -6 3 -10 2 -10 -3 0 -5 -6 -9 -14 -9 -12 0 -14 13 -6
37 1 3 4 -1 7 -9 4 -10 7 -10 13 -1z m649 -4 c9 -11 9 -16 -1 -22 -7 -4 -10
-4 -6 1 4 4 3 14 -3 22 -6 7 -9 13 -6 13 2 0 10 -6 16 -14z m-2219 -4 c0 -4
-5 -13 -12 -20 -16 -16 4 -16 22 1 8 6 6 2 -4 -10 -19 -23 -19 -23 7 -23 15 0
27 -4 27 -10 0 -5 -7 -7 -15 -4 -10 4 -15 0 -15 -12 0 -16 -2 -16 -10 -4 -5 8
-12 11 -16 7 -4 -3 -1 -13 5 -21 12 -14 0 -32 -13 -19 -8 8 -8 86 0 107 6 16
24 22 24 8z m115 -1 c3 -5 1 -12 -5 -16 -5 -3 -10 1 -10 9 0 18 6 21 15 7z
m369 -6 c-4 -8 -11 -12 -16 -9 -6 4 -5 10 3 15 19 12 19 11 13 -6z m386 -17
c0 -6 -7 -5 -15 2 -8 7 -15 17 -15 22 0 6 7 5 15 -2 8 -7 15 -17 15 -22z m870
22 c0 -5 -5 -10 -11 -10 -5 0 -7 5 -4 10 3 6 8 10 11 10 2 0 4 -4 4 -10z m143
-27 c-3 -7 -10 -10 -16 -6 -8 5 -8 8 0 10 7 3 9 12 6 21 -4 14 -3 14 5 3 6 -8
8 -20 5 -28z m1182 19 c-3 -3 -11 0 -18 7 -9 10 -8 11 6 5 10 -3 15 -9 12 -12z
m445 8 c0 -5 -5 -10 -11 -10 -5 0 -7 5 -4 10 3 6 8 10 11 10 2 0 4 -4 4 -10z
m-3422 -18 c2 -7 -3 -12 -10 -12 -8 0 -15 7 -15 15 0 18 19 15 25 -3z m434 9
c-11 -6 -10 -11 3 -25 14 -13 14 -16 2 -16 -9 0 -24 -3 -34 -6 -16 -5 -16 -4
-1 5 10 7 14 19 11 31 -4 15 0 20 13 20 14 0 16 -2 6 -9z m538 -1 c0 -5 -7
-10 -16 -10 -8 0 -12 5 -9 10 3 6 10 10 16 10 5 0 9 -4 9 -10z m470 -20 c0 -3
-9 -6 -20 -7 -23 -2 -25 3 -7 21 11 13 26 4 27 -14z m600 26 c0 -2 -8 -10 -17
-17 -16 -13 -17 -12 -4 4 13 16 21 21 21 13z m896 -5 c-4 -5 -3 -11 1 -14 5
-2 2 -2 -4 -1 -7 2 -13 -2 -13 -8 0 -6 -3 -8 -6 -5 -4 4 -1 13 6 22 14 16 25
21 16 6z m671 3 c-3 -3 -12 -4 -19 -1 -8 3 -5 6 6 6 11 1 17 -2 13 -5z m-3899
-34 c5 -13 3 -13 -11 -1 -10 7 -17 9 -17 4 0 -6 -10 -8 -22 -6 -24 4 -68 -21
-57 -32 6 -5 34 -11 72 -14 4 -1 7 -9 7 -19 0 -11 -7 -18 -20 -18 -11 0 -20 6
-20 13 0 16 -2 16 -34 3 -19 -7 -26 -6 -26 3 0 8 -4 7 -10 -3 -7 -11 -10 -11
-10 -2 0 7 -4 10 -10 7 -5 -3 -10 -2 -10 3 0 6 7 12 15 16 8 3 15 12 15 20 0
8 15 19 33 25 75 23 98 24 105 1z m19 -2 c-3 -8 -6 -5 -6 6 -1 11 2 17 5 13 3
-3 4 -12 1 -19z m1223 2 c0 -5 3 -15 6 -24 5 -12 0 -16 -17 -15 -23 0 -23 1
-4 9 17 7 17 9 3 9 -11 1 -18 9 -18 21 0 13 5 18 15 14 8 -4 15 -10 15 -14z
m631 5 c1 -17 -18 -17 -25 0 -4 11 -1 15 10 13 8 -2 15 -7 15 -13z m354 -3
c-3 -3 -11 0 -18 7 -9 10 -8 11 6 5 10 -3 15 -9 12 -12z m197 3 c19 0 14 -11
-6 -11 -12 0 -23 6 -23 13 0 6 5 9 11 5 6 -4 14 -7 18 -7z m1273 4 c11 -17 -1
-21 -15 -4 -8 9 -8 15 -2 15 6 0 14 -5 17 -11z m322 -11 c-3 -8 -6 -5 -6 6 -1
11 2 17 5 13 3 -3 4 -12 1 -19z m-3457 -3 c-7 -8 -17 -15 -22 -15 -11 0 14 29
26 30 5 0 3 -7 -4 -15z m70 -5 c0 -11 -2 -20 -4 -20 -2 0 -6 9 -9 20 -3 11 -1
20 4 20 5 0 9 -9 9 -20z m1734 6 c-10 -8 -21 -12 -24 -10 -5 6 21 24 34 24 6
0 1 -6 -10 -14z m1129 7 c-7 -2 -19 -2 -25 0 -7 3 -2 5 12 5 14 0 19 -2 13 -5z
m482 -2 c9 -15 -33 -39 -60 -33 -14 2 -25 8 -25 13 0 14 40 10 41 -3 0 -10 2
-10 6 0 2 6 12 12 21 13 14 0 13 2 -3 9 -16 7 -17 9 -3 9 9 1 19 -3 23 -8z
m-2886 -17 c4 3 7 -4 7 -15 0 -19 -1 -19 -13 -3 -7 10 -13 23 -12 28 0 6 3 5
6 -2 2 -6 8 -10 12 -8z m944 -3 c-4 -3 -11 -10 -15 -15 -4 -4 -6 1 -5 12 1 12
6 18 15 15 7 -3 10 -9 5 -12z m268 2 c12 -16 12 -17 -2 -6 -9 7 -20 9 -24 5
-5 -4 -5 -1 -1 6 9 16 11 15 27 -5z m209 -3 c0 -5 8 -11 18 -13 9 -3 -1 -5
-23 -5 -22 0 -32 2 -22 5 14 4 16 8 6 19 -10 12 -9 13 5 8 9 -3 16 -10 16 -14z
m755 -13 c-9 -5 -22 -10 -28 -11 -7 -1 -18 -5 -25 -9 -7 -5 -14 -2 -18 7 -8
22 -31 9 -43 -25 -8 -25 -7 -29 7 -30 14 0 14 -2 2 -6 -8 -3 -18 -11 -23 -17
-4 -6 -5 1 -3 16 3 20 1 25 -10 21 -18 -7 -18 2 1 24 8 10 21 27 30 38 15 20
15 20 35 -4 11 -13 20 -18 20 -12 0 7 6 11 13 10 33 -4 41 1 21 16 -18 14 -17
14 9 3 24 -10 26 -13 12 -21z m565 23 c0 -5 -5 -10 -11 -10 -5 0 -7 5 -4 10 3
6 8 10 11 10 2 0 4 -4 4 -10z m35 0 c3 -6 -1 -7 -9 -4 -18 7 -21 14 -7 14 6 0
13 -4 16 -10z m-3355 -10 c0 -5 -5 -10 -11 -10 -5 0 -7 5 -4 10 3 6 8 10 11
10 2 0 4 -4 4 -10z m100 6 c0 -11 -19 -15 -25 -6 -3 5 1 10 9 10 9 0 16 -2 16
-4z m1470 -17 c0 -5 -7 -9 -15 -9 -15 0 -20 12 -9 23 8 8 24 -1 24 -14z m47
15 c-3 -3 -12 -4 -19 -1 -8 3 -5 6 6 6 11 1 17 -2 13 -5z m87 -9 c-4 -8 -10
-15 -15 -15 -4 0 -6 7 -3 15 4 8 10 15 15 15 4 0 6 -7 3 -15z m46 5 c0 -5 -2
-10 -4 -10 -3 0 -8 5 -11 10 -3 6 -1 10 4 10 6 0 11 -4 11 -10z m-1476 -9 c-9
-9 -45 -11 -39 -2 3 6 14 9 25 8 10 -1 17 -3 14 -6z m-784 -20 c0 -6 -4 -12
-8 -15 -5 -3 -9 1 -9 9 0 8 4 15 9 15 4 0 8 -4 8 -9z m650 -5 c0 -10 -7 -12
-22 -8 -21 5 -21 6 -2 13 10 4 20 8 22 8 1 1 2 -5 2 -13z m1925 4 c3 -6 -1 -7
-9 -4 -18 7 -21 14 -7 14 6 0 13 -4 16 -10z m65 -15 c0 -8 -9 -10 -25 -7 -14
2 -25 10 -25 17 0 8 9 10 25 7 14 -2 25 -10 25 -17z m-2835 5 c3 -5 1 -10 -4
-10 -6 0 -11 5 -11 10 0 6 2 10 4 10 3 0 8 -4 11 -10z m633 -9 c3 -9 -2 -11
-18 -6 -15 5 -20 4 -16 -4 4 -6 1 -11 -7 -11 -10 0 -13 7 -10 20 6 22 44 22
51 1z m252 8 c0 -6 7 -9 15 -5 8 3 15 1 15 -4 0 -15 -26 -12 -40 5 -9 10 -9
15 -1 15 6 0 11 -5 11 -11z m123 -12 c4 3 7 1 7 -5 0 -7 -2 -12 -4 -12 -2 0
-11 -2 -18 -5 -10 -4 -14 2 -14 21 0 22 2 23 11 10 7 -9 15 -13 18 -9z m2940
16 c-7 -2 -19 -2 -25 0 -7 3 -2 5 12 5 14 0 19 -2 13 -5z m187 3 c0 -2 -7 -7
-16 -10 -8 -3 -12 -2 -9 4 6 10 25 14 25 6z m-3413 -12 c-3 -3 -12 -4 -19 -1
-8 3 -5 6 6 6 11 1 17 -2 13 -5z m3121 -1 c-10 -2 -18 -8 -18 -13 0 -5 7 -7
15 -4 8 4 15 1 15 -5 0 -6 -4 -11 -9 -11 -5 0 -16 -3 -24 -6 -10 -3 -15 0 -13
8 3 23 17 38 34 37 15 -1 15 -2 0 -6z m-1121 -16 c2 -3 -3 -7 -11 -10 -8 -3
-20 0 -26 8 -10 12 -8 13 10 10 13 -2 25 -6 27 -8z m1181 -5 c6 -18 -15 -14
-22 4 -4 10 -1 14 6 12 6 -2 14 -10 16 -16z m-3403 -2 c3 -5 1 -10 -4 -10 -6
0 -11 5 -11 10 0 6 2 10 4 10 3 0 8 -4 11 -10z m205 0 c-8 -5 -22 -9 -30 -9
-10 0 -8 3 5 9 27 12 43 12 25 0z m2954 -11 c-2 -4 4 -13 13 -19 17 -11 17
-11 -1 -6 -10 4 -26 1 -35 -6 -14 -12 -14 -11 -3 4 8 9 11 21 8 26 -3 5 1 9 9
9 8 0 12 -4 9 -8z m-3087 -5 c-3 -3 -12 -4 -19 -1 -8 3 -5 6 6 6 11 1 17 -2
13 -5z m490 -9 c0 -8 -4 -12 -9 -9 -5 3 -6 10 -3 15 9 13 12 11 12 -6z m131
-10 c-3 -3 -9 2 -12 12 -6 14 -5 15 5 6 7 -7 10 -15 7 -18z m2110 -7 c-6 -15
-14 -28 -19 -28 -11 0 0 -54 13 -58 19 -8 6 -23 -14 -18 -13 3 -18 3 -12 0 8
-3 9 -17 2 -47 -11 -52 -22 -64 -43 -47 -11 10 -18 10 -29 1 -12 -10 -14 -7
-10 21 l5 33 -21 -34 c-24 -38 -20 -64 7 -54 17 7 17 6 0 -11 -10 -10 -19 -17
-21 -15 -1 2 -12 26 -25 52 -12 26 -29 51 -37 54 -13 5 -11 10 12 29 15 13 31
24 35 24 4 0 15 7 23 16 9 8 16 11 16 6 0 -5 -7 -15 -15 -22 -8 -7 -13 -16
-10 -20 2 -4 -7 -12 -21 -19 l-26 -11 24 -19 c20 -17 24 -17 31 -4 5 8 6 17 3
20 -3 4 -6 1 -6 -5 0 -7 -4 -12 -8 -12 -5 0 -9 7 -9 15 0 14 10 19 30 16 5 -1
5 3 2 9 -11 17 25 51 47 44 13 -4 16 -1 12 9 -3 9 -13 13 -26 9 -15 -3 -19 -1
-16 9 2 8 14 15 26 17 16 2 22 10 22 27 0 26 18 41 49 41 16 0 17 -4 9 -28z
m-3181 0 c-3 -8 -6 -5 -6 6 -1 11 2 17 5 13 3 -3 4 -12 1 -19z m33 7 c0 -8 -4
-15 -10 -15 -5 0 -10 7 -10 15 0 8 5 15 10 15 6 0 10 -7 10 -15z m40 4 c0 -5
-4 -8 -9 -5 -5 4 -12 0 -14 -6 -3 -8 -6 -6 -6 5 -1 9 6 17 14 17 8 0 15 -5 15
-11z m27 -21 c-3 -7 -5 -2 -5 12 0 14 2 19 5 13 2 -7 2 -19 0 -25z m177 15 c4
-10 4 -14 0 -11 -4 4 -16 2 -28 -4 -21 -11 -21 -11 -2 11 23 25 22 25 30 4z
m151 7 c18 -8 17 -9 -7 -9 -15 -1 -30 4 -33 9 -7 12 12 12 40 0z m107 -15 c3
-13 1 -22 -3 -19 -9 5 -13 44 -5 44 2 0 6 -11 8 -25z m133 16 c3 -5 1 -12 -5
-16 -5 -3 -10 1 -10 9 0 18 6 21 15 7z m2925 -1 c0 -5 -4 -10 -10 -10 -5 0
-10 5 -10 10 0 6 5 10 10 10 6 0 10 -4 10 -10z m135 0 c-3 -5 -16 -10 -28 -9
-21 0 -21 1 -2 9 28 12 37 12 30 0z m-3142 -7 c-7 -2 -21 -2 -30 0 -10 3 -4 5
12 5 17 0 24 -2 18 -5z m727 -2 c0 -5 -9 -7 -20 -4 -11 3 -20 7 -20 9 0 2 9 4
20 4 11 0 20 -4 20 -9z m2460 5 c0 -2 -7 -7 -16 -10 -8 -3 -12 -2 -9 4 6 10
25 14 25 6z m137 -2 c-3 -3 -12 -4 -19 -1 -8 3 -5 6 6 6 11 1 17 -2 13 -5z
m-3091 -20 c-5 -12 -1 -14 17 -9 20 5 20 5 4 -6 -21 -12 -44 2 -33 20 11 17
19 13 12 -5z m-37 -5 c-17 -11 -39 -12 -39 -1 0 4 12 8 27 9 19 1 22 -1 12 -8z
m1354 -39 c58 -56 70 -61 186 -84 68 -13 86 -14 93 -4 5 8 8 9 8 2 0 -6 23
-14 50 -18 28 -4 50 -11 50 -15 0 -5 8 -7 19 -4 10 3 32 -2 49 -11 17 -9 39
-16 49 -16 27 -1 88 -35 86 -47 -1 -6 6 -9 17 -6 23 6 27 45 7 65 -8 7 -12 19
-9 26 6 18 22 4 22 -19 0 -13 4 -18 12 -13 7 5 8 3 3 -6 -6 -9 3 -11 41 -6 63
7 77 10 92 20 8 5 12 -2 12 -23 0 -16 5 -42 10 -58 l10 -28 -22 25 c-12 14
-19 18 -15 8 3 -9 0 -19 -8 -21 -8 -4 -15 5 -19 24 -3 17 -10 28 -16 24 -14
-9 -13 -37 3 -74 11 -26 16 -30 25 -18 7 8 8 18 4 23 -4 5 2 2 13 -7 11 -9 27
-19 35 -22 10 -4 7 -6 -7 -6 -13 -1 -23 4 -23 10 0 6 -17 -7 -37 -29 -55 -58
-122 -65 -116 -12 3 22 -62 60 -100 58 -17 0 -47 2 -66 7 -26 5 -32 4 -28 -6
2 -8 10 -13 17 -11 7 2 17 -3 22 -10 6 -10 10 -10 16 -1 7 10 12 10 27 0 14
-11 15 -16 5 -22 -9 -5 -11 -4 -6 3 4 7 2 12 -3 12 -6 0 -11 -5 -11 -11 0 -5
-4 -7 -10 -4 -14 8 -90 12 -90 4 0 -7 76 -19 119 -19 14 0 38 -6 53 -14 24
-13 27 -12 31 2 4 16 5 16 6 0 0 -9 -6 -23 -14 -32 -20 -19 -20 -27 -4 -37 8
-4 11 -11 7 -14 -3 -4 -24 12 -46 34 -42 44 -60 46 -95 9 -21 -21 -35 -24 -17
-3 13 15 5 39 -11 30 -5 -4 -9 -2 -9 4 0 6 -7 7 -17 4 -10 -4 -14 -2 -10 4 4
6 -6 11 -26 11 -17 0 -34 1 -37 2 -30 14 -150 22 -178 12 -27 -9 -29 -9 -24
16 4 18 2 23 -8 17 -7 -4 -24 2 -41 14 -16 12 -34 19 -39 16 -5 -3 -11 -1 -15
5 -4 6 -11 8 -16 5 -5 -4 -9 -2 -9 3 0 6 -10 8 -22 5 -19 -4 -20 -3 -8 6 13 9
13 11 -2 11 -12 0 -18 -8 -18 -21 0 -11 4 -18 8 -15 5 3 9 -1 9 -8 0 -7 -6
-13 -12 -13 -7 0 -12 19 -14 45 -2 37 1 43 13 39 18 -7 19 -5 10 17 -3 9 -11
13 -18 9 -6 -4 -6 0 2 9 10 13 10 19 -3 31 -22 23 -21 167 2 167 2 0 27 -22
56 -50z m1108 41 c-8 -5 -11 -16 -7 -27 8 -21 -9 -34 -44 -33 -21 0 -22 2 -7
8 10 4 18 10 18 14 -1 4 2 7 7 6 4 -1 6 -5 4 -11 -1 -5 2 -7 8 -3 7 4 7 12 0
25 -7 13 -6 20 3 23 21 9 33 7 18 -2z m446 3 c-3 -3 -12 -4 -19 -1 -8 3 -5 6
6 6 11 1 17 -2 13 -5z m103 2 c0 -2 -9 -6 -20 -9 -11 -3 -18 -1 -14 4 5 9 34
13 34 5z m80 -6 c0 -5 -5 -10 -11 -10 -5 0 -7 5 -4 10 3 6 8 10 11 10 2 0 4
-4 4 -10z m-3452 -25 c-3 -3 -9 2 -12 12 -6 14 -5 15 5 6 7 -7 10 -15 7 -18z
m87 7 c-3 -3 -11 0 -18 7 -9 10 -8 11 6 5 10 -3 15 -9 12 -12z m3115 -5 c10
-4 8 -6 -7 -6 -16 -1 -23 5 -23 17 0 10 3 13 8 6 4 -6 14 -14 22 -17z m214 7
c3 -8 2 -12 -4 -9 -6 3 -10 10 -10 16 0 14 7 11 14 -7z m-3571 -4 c-13 -5 -23
-15 -23 -21 0 -7 -2 -10 -5 -7 -12 11 9 38 29 37 21 0 21 0 -1 -9z m2309 -10
c48 -37 38 -120 -15 -120 -27 0 -38 8 -60 40 -21 31 -22 64 -1 84 21 21 46 20
76 -4z m-2675 -12 c-3 -8 -6 -5 -6 6 -1 11 2 17 5 13 3 -3 4 -12 1 -19z m72
-9 c-12 -8 -12 -11 1 -19 8 -5 10 -10 5 -10 -6 0 -17 6 -24 13 -11 10 -14 10
-18 0 -3 -7 -14 -13 -24 -13 -28 0 -14 17 29 38 35 17 60 9 31 -9z m131 10 c0
-13 -4 -18 -12 -14 -7 4 -5 0 5 -8 20 -17 9 -31 -13 -16 -20 12 -30 11 -30 -1
0 -5 6 -10 14 -10 8 0 17 -4 20 -9 3 -5 -5 -8 -18 -8 -19 0 -25 6 -30 29 -7
35 -30 33 -33 -3 -1 -14 0 -17 3 -6 7 23 24 22 24 -3 0 -19 -4 -22 -32 -24 -7
-1 -16 -5 -20 -11 -4 -5 -10 -6 -14 -2 -4 4 0 15 9 25 10 10 17 28 17 39 0 25
17 33 52 26 14 -3 29 0 32 6 11 18 26 13 26 -10z m669 6 c0 -6 -6 -8 -12 -6
-7 2 -24 4 -39 5 -14 0 -24 4 -22 8 7 10 74 4 73 -7z m152 -12 c-12 -20 -14
-14 -5 12 4 9 9 14 11 11 3 -2 0 -13 -6 -23z m1809 -10 c0 -25 -15 -12 -17 14
-1 19 1 22 8 12 5 -8 9 -20 9 -26z m720 27 c0 -5 -15 -10 -32 -9 -31 1 -32 1
-8 9 35 11 40 11 40 0z m230 -16 c0 -8 -5 -14 -11 -14 -5 0 -7 5 -3 11 4 8 -1
9 -17 4 -21 -7 -22 -6 -11 8 15 18 42 12 42 -9z m54 11 c-4 -8 -13 -15 -21
-15 -8 0 -12 -4 -9 -9 6 -10 -24 -25 -32 -16 -3 3 0 5 6 5 7 0 12 9 12 21 0
15 5 19 15 15 8 -3 15 -1 15 4 0 6 4 10 10 10 5 0 7 -7 4 -15z m-3464 1 c0 -3
-4 -8 -10 -11 -5 -3 -10 -1 -10 4 0 6 5 11 10 11 6 0 10 -2 10 -4z m3481 -19
c-10 -9 -11 -8 -5 6 3 10 9 15 12 12 3 -3 0 -11 -7 -18z m-2927 -8 c-7 -12 3
-11 26 1 13 7 19 6 24 -6 3 -9 4 -20 0 -25 -3 -5 0 -9 7 -9 7 0 10 -2 7 -5 -3
-3 -13 -3 -22 1 -13 5 -14 9 -5 20 11 14 -2 20 -15 7 -11 -11 -36 -12 -36 -1
0 6 -7 8 -15 4 -12 -4 -13 -2 -3 13 6 11 17 17 25 14 7 -3 10 -9 7 -14z m377
-26 c-9 -16 -10 -15 -11 8 0 14 3 29 8 33 12 12 14 -22 3 -41z m2324 38 c3 -5
2 -12 -3 -15 -5 -3 -9 1 -9 9 0 17 3 19 12 6z m73 -5 c-7 -8 -15 -12 -17 -11
-5 6 10 25 20 25 5 0 4 -6 -3 -14z m-3008 0 c0 -2 -7 -7 -16 -10 -8 -3 -12 -2
-9 4 6 10 25 14 25 6z m704 -4 c5 -9 -16 -77 -28 -89 -4 -4 -5 6 -2 22 2 17 5
40 5 53 1 22 15 30 25 14z m1106 -64 c0 -4 -4 -8 -10 -8 -5 0 -10 4 -10 9 0 4
-12 6 -26 3 -19 -3 -25 -1 -20 7 4 6 12 8 18 5 7 -4 8 -2 4 5 -5 7 -16 9 -28
5 -14 -4 -18 -2 -14 5 4 6 2 11 -3 11 -6 0 -11 5 -11 11 0 5 23 -2 50 -17 28
-15 50 -31 50 -36z m50 42 c0 -5 -5 -10 -11 -10 -5 0 -7 5 -4 10 3 6 8 10 11
10 2 0 4 -4 4 -10z m962 -22 c-7 -7 -12 -8 -12 -2 0 14 12 26 19 19 2 -3 -1
-11 -7 -17z m88 6 c0 -10 -6 -13 -19 -9 -15 4 -20 -1 -26 -27 -4 -18 -9 -27
-12 -20 -3 7 -2 24 1 38 5 20 12 25 26 21 11 -3 20 -1 20 4 0 5 2 9 5 9 3 0 5
-7 5 -16z m50 1 c0 -1 -9 -5 -20 -8 -12 -3 -20 0 -20 8 0 8 8 11 20 8 11 -3
20 -7 20 -8z m25 5 c3 -5 1 -10 -4 -10 -6 0 -11 5 -11 10 0 6 2 10 4 10 3 0 8
-4 11 -10z m-3357 -25 c-1 -13 -4 -22 -7 -19 -6 6 -51 -37 -51 -48 0 -5 5 -6
12 -2 7 4 8 3 4 -4 -7 -12 36 -28 52 -19 4 3 7 -10 5 -29 -2 -28 1 -35 12 -30
8 3 15 0 15 -5 0 -6 -9 -9 -20 -6 -11 3 -23 1 -26 -4 -3 -5 2 -9 10 -9 18 0
21 -11 5 -27 -12 -12 -56 -5 -66 10 -4 6 4 8 20 5 24 -5 26 -2 23 18 -6 30
-15 46 -25 40 -4 -3 -8 1 -8 9 0 11 4 12 14 4 22 -19 15 -1 -9 21 l-22 21 -18
-23 -18 -23 10 30 c6 17 27 44 45 62 19 18 35 37 35 42 0 6 2 11 5 11 3 0 4
-11 3 -25z m807 15 c3 -6 -1 -7 -9 -4 -10 4 -16 1 -16 -7 0 -7 -3 -10 -6 -6
-7 7 4 27 16 27 5 0 12 -4 15 -10z m2985 0 c0 -3 -14 -11 -30 -17 -17 -6 -28
-7 -24 -2 3 5 -6 9 -20 9 -14 0 -26 4 -26 9 0 6 22 9 50 8 27 -1 50 -4 50 -7z
m-4070 -15 c0 -6 -9 -11 -20 -11 -19 0 -25 7 -15 18 9 9 35 5 35 -7z m990 11
c0 -3 -4 -8 -10 -11 -5 -3 -10 -1 -10 4 0 6 5 11 10 11 6 0 10 -2 10 -4z
m1537 -18 c-3 -8 -6 -5 -6 6 -1 11 2 17 5 13 3 -3 4 -12 1 -19z m-2593 -9 c-3
-5 -10 -7 -15 -3 -5 3 -7 10 -3 15 3 5 10 7 15 3 5 -3 7 -10 3 -15z m994 -4
c-3 -3 -9 2 -12 12 -6 14 -5 15 5 6 7 -7 10 -15 7 -18z m-758 -7 c0 -18 -2
-20 -9 -8 -6 8 -7 18 -5 22 9 14 14 9 14 -14z m525 12 c3 -5 -1 -10 -9 -10 -9
0 -16 5 -16 10 0 6 4 10 9 10 6 0 13 -4 16 -10z m209 -6 c3 -8 2 -12 -4 -9 -6
3 -10 10 -10 16 0 14 7 11 14 -7z m-745 -39 c6 -3 11 -11 11 -17 0 -6 -9 1
-20 15 -11 14 -20 31 -19 39 0 7 4 3 9 -8 5 -12 13 -25 19 -29z m3534 23 c4
-12 4 -24 1 -27 -8 -8 -23 22 -17 32 4 6 -5 7 -21 3 -18 -4 -25 -3 -21 4 12
19 52 11 58 -12z m271 -6 c-7 -2 -21 2 -31 8 -17 11 -17 11 0 6 9 -3 17 -1 17
5 0 5 6 4 14 -3 12 -11 12 -14 0 -16z m-3874 -9 c0 -14 2 -15 9 -4 7 10 12 10
30 -5 11 -10 21 -22 21 -27 0 -5 -6 -4 -14 2 -11 9 -16 9 -21 1 -5 -9 -10 -9
-18 -1 -17 17 -35 13 -42 -10 -5 -15 -10 -17 -19 -10 -7 6 -15 9 -17 7 -2 -2
-4 6 -4 19 0 23 9 26 33 11 9 -5 15 -1 19 13 6 25 23 28 23 4z m275 7 c-3 -5
-12 -7 -20 -3 -21 7 -19 13 6 13 11 0 18 -4 14 -10z m-367 -25 c-3 -3 -9 2
-12 12 -6 14 -5 15 5 6 7 -7 10 -15 7 -18z m306 10 c3 -8 1 -15 -3 -15 -5 0
-12 6 -14 13 -3 7 -6 5 -6 -5 -1 -21 -21 -24 -21 -4 0 13 13 23 31 25 4 1 9
-6 13 -14z m3193 -32 c-3 -10 -5 -4 -5 12 0 17 2 24 5 18 2 -7 2 -21 0 -30z
m-3567 23 c0 -3 -4 -8 -10 -11 -5 -3 -10 -1 -10 4 0 6 5 11 10 11 6 0 10 -2
10 -4z m451 -11 c12 11 19 15 16 8 -9 -15 50 -36 59 -21 4 6 13 -3 20 -21 7
-17 23 -36 36 -41 13 -6 43 -22 68 -35 24 -14 51 -23 59 -20 9 3 12 3 9 -1 -8
-7 112 -100 125 -96 5 1 6 -2 3 -7 -4 -5 4 -11 16 -13 14 -2 19 -6 12 -10 -6
-4 -36 10 -67 32 -30 22 -61 40 -67 40 -6 0 -8 5 -5 10 3 6 -1 10 -9 10 -24 0
-29 2 -51 22 -10 10 -25 16 -33 13 -7 -2 -11 -1 -8 3 3 5 -12 16 -32 25 -20 9
-52 30 -70 47 -37 33 -68 38 -112 15 -27 -14 -44 -5 -20 10 6 3 10 11 10 16 0
6 -4 7 -10 4 -6 -3 -7 1 -4 10 6 14 8 14 19 -2 13 -17 14 -17 36 2z m639 11
c0 -3 -4 -8 -10 -11 -5 -3 -10 -1 -10 4 0 6 5 11 10 11 6 0 10 -2 10 -4z m251
-51 c6 -20 6 -26 -1 -19 -5 5 -12 25 -15 44 -5 36 -1 29 16 -25z m2165 48
c-10 -10 -46 -11 -40 -1 3 4 15 8 26 8 12 0 18 -3 14 -7z m472 -11 c5 -17 -17
-15 -34 3 -14 13 -13 15 7 12 13 -2 25 -9 27 -15z m-848 4 c0 -3 -4 -8 -10
-11 -5 -3 -10 -1 -10 4 0 6 5 11 10 11 6 0 10 -2 10 -4z m805 -14 c-3 -3 -11
0 -18 7 -9 10 -8 11 6 5 10 -3 15 -9 12 -12z m75 8 c0 -5 11 -10 25 -10 14 0
25 -4 25 -8 0 -12 -44 -9 -57 4 -16 15 -17 24 -3 24 6 0 10 -4 10 -10z m127
-5 c0 -8 -4 -12 -9 -9 -5 3 -6 10 -3 15 9 13 12 11 12 -6z m-3183 -11 c8 -21
5 -23 -19 -13 -11 4 -14 8 -7 8 7 1 10 6 7 11 -3 6 -2 10 3 10 6 0 13 -7 16
-16z m3141 2 c7 3 15 2 18 -3 3 -4 -6 -9 -19 -9 -16 -1 -24 3 -23 15 0 9 3 11
5 4 3 -7 11 -10 19 -7z m-4030 -15 c-8 -14 -35 -14 -35 0 0 6 7 9 15 5 8 -3
15 0 15 6 0 6 3 9 6 5 3 -3 3 -10 -1 -16z m842 13 c-3 -3 -12 -4 -19 -1 -8 3
-5 6 6 6 11 1 17 -2 13 -5z m162 -1 c-3 -21 3 -24 19 -12 15 13 16 12 4 -3
-11 -14 -17 -15 -32 -5 -14 8 -16 13 -7 19 15 10 17 10 16 1z m2566 -3 c-3 -5
-14 -10 -23 -9 -14 0 -13 2 3 9 27 11 27 11 20 0z m-3044 -27 c13 -16 12 -17
-3 -4 -10 7 -18 15 -18 17 0 8 8 3 21 -13z m-591 -7 c0 -2 -7 -7 -16 -10 -8
-3 -12 -2 -9 4 6 10 25 14 25 6z m156 -12 c-3 -9 -6 -21 -6 -28 0 -6 -10 -12
-22 -13 -13 0 -17 1 -10 4 6 3 12 11 12 19 0 8 5 14 11 14 5 0 7 5 4 10 -3 6
-1 10 5 10 7 0 9 -7 6 -16z m63 -21 c14 -11 14 -14 1 -23 -8 -5 -21 -8 -27 -5
-7 2 -16 -7 -19 -22 l-7 -27 -9 24 c-6 18 -4 27 12 42 11 10 20 26 21 36 0 14
2 14 6 2 4 -8 13 -21 22 -27z m854 24 c7 3 9 2 4 -2 -4 -5 -16 -9 -27 -10 -16
-1 -17 1 -8 13 8 9 14 10 16 3 2 -6 9 -8 15 -4z m703 -34 c-11 -11 -17 4 -9
23 7 18 8 18 11 1 2 -10 1 -21 -2 -24z m-1685 3 c-9 -11 -9 -15 1 -19 10 -4
10 -6 0 -6 -18 -1 -27 30 -11 39 18 12 24 4 10 -14z m3034 -11 c0 -19 -2 -35
-5 -35 -9 0 -30 23 -30 31 0 6 28 39 33 39 1 0 2 -16 2 -35z m-3183 3 c-7 -7
-12 -8 -12 -2 0 14 12 26 19 19 2 -3 -1 -11 -7 -17z m2363 8 c7 3 16 1 20 -5
7 -12 -29 -10 -41 1 -3 4 -13 4 -22 1 -15 -4 -15 -3 -2 6 9 6 19 6 24 1 4 -4
14 -6 21 -4z m-2335 -26 c0 -5 -2 -10 -4 -10 -3 0 -8 5 -11 10 -3 6 -1 10 4
10 6 0 11 -4 11 -10z m176 -22 c2 -13 5 -32 7 -43 2 -11 2 -14 0 -7 -3 9 -15
11 -40 6 -33 -6 -35 -6 -24 15 7 11 21 21 31 21 11 0 20 5 20 10 0 6 -8 10
-17 10 -15 0 -16 2 -3 10 18 11 22 7 26 -22z m2079 12 c3 -6 -1 -7 -9 -4 -18
7 -21 14 -7 14 6 0 13 -4 16 -10z m46 -18 c-7 -2 -18 1 -23 6 -8 8 -4 9 13 5
13 -4 18 -8 10 -11z m-2205 -24 c-9 -5 -16 -20 -16 -33 0 -14 -6 -25 -12 -25
-9 0 -9 -3 1 -9 16 -10 44 -3 36 9 -3 4 2 13 10 20 13 11 15 9 13 -17 -2 -33
-16 -38 -61 -21 -24 9 -26 13 -13 20 21 12 21 42 0 34 -8 -3 -12 -2 -9 4 3 6
1 10 -4 10 -6 0 -11 5 -11 11 0 5 4 8 9 5 5 -4 20 -2 33 3 28 10 47 2 24 -11z
m176 15 c-12 -2 -20 -8 -18 -12 4 -6 -17 -7 -44 -2 -17 4 31 20 55 19 24 0 25
-2 7 -5z m158 -8 c0 -21 -37 -37 -71 -30 -33 7 -39 21 -10 21 11 0 17 -4 15
-8 -7 -10 -1 -10 31 2 14 5 23 14 20 20 -3 5 -1 10 4 10 6 0 11 -7 11 -15z
m2080 9 c0 -1 -8 -8 -17 -15 -9 -8 -14 -9 -10 -2 5 7 -1 13 -15 16 -14 3 -11
4 10 4 17 -1 32 -2 32 -3z m-120 -14 c0 -5 -2 -10 -4 -10 -3 0 -8 5 -11 10 -3
6 -1 10 4 10 6 0 11 -4 11 -10z m1024 -4 c-8 -20 -56 -27 -74 -10 -12 12 -12
14 3 14 9 0 17 -5 17 -11 0 -7 9 -5 23 4 28 20 38 21 31 3z m-3449 -6 c3 -5 1
-10 -4 -10 -6 0 -11 5 -11 10 0 6 2 10 4 10 3 0 8 -4 11 -10z m3320 0 c-3 -5
1 -10 9 -10 8 0 18 -4 21 -10 4 -7 -3 -7 -20 0 -20 8 -26 7 -23 -2 3 -9 29
-14 76 -15 62 -3 72 -1 73 15 0 13 2 14 6 2 9 -24 26 -31 60 -25 35 6 47 -3
32 -25 -7 -12 -11 -12 -17 -3 -10 15 -216 28 -207 13 3 -6 -1 -7 -9 -4 -9 3
-16 14 -17 23 0 13 -2 12 -10 -4 -8 -17 -9 -16 -3 5 3 14 6 31 6 38 1 6 8 12
15 12 8 0 11 -4 8 -10z m-3262 -14 c3 -8 0 -17 -7 -19 -10 -4 -12 1 -9 14 6
23 9 24 16 5z m1109 -18 c22 -34 31 -68 18 -68 -6 0 -9 4 -6 8 3 5 -4 25 -14
45 -22 41 -20 49 2 15z m1413 2 c-1 -11 -5 -23 -10 -27 -4 -5 -5 -3 -1 4 3 6
2 14 -4 18 -6 4 -8 11 -5 16 10 16 22 10 20 -11z m-1920 0 c3 -5 1 -10 -4 -10
-6 0 -11 5 -11 10 0 6 2 10 4 10 3 0 8 -4 11 -10z m1135 0 c0 -5 -5 -10 -11
-10 -5 0 -7 -5 -3 -12 4 -7 3 -8 -4 -4 -6 4 -9 13 -5 21 6 17 23 20 23 5z
m701 -8 c-7 -2 -18 1 -23 6 -8 8 -4 9 13 5 13 -4 18 -8 10 -11z m40 9 c-11 -7
-11 -10 3 -14 15 -5 15 -5 0 -3 -24 2 -30 26 -7 26 14 0 15 -2 4 -9z m906 3
c-3 -3 -12 -4 -19 -1 -8 3 -5 6 6 6 11 1 17 -2 13 -5z m63 -4 c0 -5 -7 -7 -15
-4 -8 4 -15 8 -15 10 0 2 7 4 15 4 8 0 15 -4 15 -10z m-1160 -21 c0 -6 -4 -7
-10 -4 -5 3 -10 11 -10 16 0 6 5 7 10 4 6 -3 10 -11 10 -16z m-2148 -13 c7 4
8 2 4 -5 -9 -13 -26 -5 -25 12 0 9 2 8 6 -1 2 -6 10 -9 15 -6z m1563 4 c3 -6
-1 -7 -9 -4 -18 7 -21 14 -7 14 6 0 13 -4 16 -10z m855 0 c0 -5 -5 -10 -11
-10 -5 0 -7 5 -4 10 3 6 8 10 11 10 2 0 4 -4 4 -10z m-1653 -19 c0 -11 -5 -18
-9 -15 -4 3 -5 11 -1 19 7 21 12 19 10 -4z m48 9 c3 -6 -1 -7 -9 -4 -18 7 -21
14 -7 14 6 0 13 -4 16 -10z m978 -4 c4 -10 1 -13 -8 -9 -8 3 -12 9 -9 14 7 12
11 11 17 -5z m877 0 c0 -3 -4 -8 -10 -11 -5 -3 -10 -1 -10 4 0 6 5 11 10 11 6
0 10 -2 10 -4z m-1117 -26 c-3 -12 -8 -19 -11 -16 -5 6 5 36 12 36 2 0 2 -9
-1 -20z m207 11 c0 -6 -4 -13 -10 -16 -5 -3 -10 1 -10 9 0 9 5 16 10 16 6 0
10 -4 10 -9z m-1793 -23 c-3 -8 -6 -5 -6 6 -1 11 2 17 5 13 3 -3 4 -12 1 -19z
m1953 6 c0 -8 -4 -12 -10 -9 -5 3 -10 10 -10 16 0 5 5 9 10 9 6 0 10 -7 10
-16z"/>
<path d="M1622 4008 c5 -15 28 -18 29 -3 0 6 -7 12 -17 13 -10 3 -15 -1 -12
-10z"/>
<path d="M1765 3990 c3 -5 10 -10 16 -10 5 0 9 5 9 10 0 6 -7 10 -16 10 -8 0
-12 -4 -9 -10z"/>
<path d="M1638 3953 c7 -3 16 -2 19 1 4 3 -2 6 -13 5 -11 0 -14 -3 -6 -6z"/>
<path d="M1616 3884 c-4 -20 -5 -38 -3 -40 3 -3 8 11 11 32 4 20 5 38 3 40 -3
3 -8 -11 -11 -32z"/>
<path d="M1900 3900 c0 -7 -3 -10 -7 -7 -8 8 -43 -22 -43 -37 0 -6 7 0 16 12
8 12 19 20 24 17 10 -6 25 14 16 22 -3 4 -6 0 -6 -7z"/>
<path d="M1870 3770 c0 -6 7 -10 15 -10 8 0 15 2 15 4 0 2 -7 6 -15 10 -8 3
-15 1 -15 -4z"/>
<path d="M1741 2607 c2 -1 15 -11 29 -22 l25 -20 -19 23 c-11 12 -24 22 -29
22 -6 0 -8 -1 -6 -3z"/>
<path d="M1370 4005 c1 -26 2 -28 11 -12 8 14 8 22 0 30 -8 8 -11 3 -11 -18z"/>
<path d="M1040 4010 c0 -5 9 -10 20 -10 11 0 20 5 20 10 0 6 -9 10 -20 10 -11
0 -20 -4 -20 -10z"/>
<path d="M1397 3989 c-6 -24 17 -56 28 -39 3 5 1 10 -5 10 -7 0 -9 8 -5 19 3
11 2 22 -3 25 -6 3 -12 -4 -15 -15z"/>
<path d="M960 3983 c0 -15 -2 -16 -10 -3 -8 11 -9 9 -8 -12 2 -26 18 -41 18
-18 0 6 11 10 25 10 l25 0 -20 20 c-25 25 -30 25 -30 3z"/>
<path d="M1090 3980 c0 -5 7 -10 15 -10 8 0 15 5 15 10 0 6 -7 10 -15 10 -8 0
-15 -4 -15 -10z"/>
<path d="M1386 3941 c-4 -7 -5 -15 -2 -18 9 -9 19 4 14 18 -4 11 -6 11 -12 0z"/>
<path d="M1185 3929 c-10 -15 3 -25 16 -12 7 7 7 13 1 17 -6 3 -14 1 -17 -5z"/>
<path d="M1361 3924 c0 -11 3 -14 6 -6 3 7 2 16 -1 19 -3 4 -6 -2 -5 -13z"/>
<path d="M940 3911 c0 -5 5 -13 10 -16 6 -3 10 -2 10 4 0 5 -4 13 -10 16 -5 3
-10 2 -10 -4z"/>
<path d="M1385 3890 c-3 -5 -1 -10 4 -10 6 0 11 5 11 10 0 6 -2 10 -4 10 -3 0
-8 -4 -11 -10z"/>
<path d="M998 3873 c7 -3 16 -2 19 1 4 3 -2 6 -13 5 -11 0 -14 -3 -6 -6z"/>
<path d="M1422 3770 c0 -14 2 -19 5 -12 2 6 2 18 0 25 -3 6 -5 1 -5 -13z"/>
<path d="M1258 2733 c7 -3 16 -2 19 1 4 3 -2 6 -13 5 -11 0 -14 -3 -6 -6z"/>
<path d="M1418 2733 c6 -2 18 -2 25 0 6 3 1 5 -13 5 -14 0 -19 -2 -12 -5z"/>
<path d="M284 4006 c0 -12 6 -23 13 -23 9 0 10 4 3 12 -5 7 -7 14 -4 17 3 3 1
8 -3 11 -5 3 -9 -5 -9 -17z"/>
<path d="M500 4001 c-9 -19 -8 -21 15 -21 28 0 32 12 11 29 -12 10 -17 8 -26
-8z"/>
<path d="M360 3945 c0 -8 2 -15 4 -15 2 0 11 -3 20 -6 23 -9 20 9 -4 24 -17
10 -20 10 -20 -3z"/>
<path d="M660 3950 c0 -5 5 -10 10 -10 6 0 10 5 10 10 0 6 -4 10 -10 10 -5 0
-10 -4 -10 -10z"/>
<path d="M467 3924 c-3 -4 0 -13 8 -20 18 -18 31 -18 16 -1 -6 8 -8 17 -4 20
3 4 2 7 -4 7 -5 0 -12 -3 -16 -6z"/>
<path d="M340 3890 c0 -5 7 -10 16 -10 8 0 12 5 9 10 -3 6 -10 10 -16 10 -5 0
-9 -4 -9 -10z"/>
<path d="M528 3893 c6 -2 18 -2 25 0 6 3 1 5 -13 5 -14 0 -19 -2 -12 -5z"/>
<path d="M292 3840 c0 -14 2 -19 5 -12 2 6 2 18 0 25 -3 6 -5 1 -5 -13z"/>
<path d="M740 3855 c0 -5 5 -17 10 -25 5 -8 10 -10 10 -5 0 6 -5 17 -10 25 -5
8 -10 11 -10 5z"/>
<path d="M428 3843 c6 -2 18 -2 25 0 6 3 1 5 -13 5 -14 0 -19 -2 -12 -5z"/>
<path d="M306 3803 c-6 -14 -5 -15 5 -6 7 7 10 15 7 18 -3 3 -9 -2 -12 -12z"/>
<path d="M292 3740 c0 -14 2 -19 5 -12 2 6 2 18 0 25 -3 6 -5 1 -5 -13z"/>
<path d="M520 2335 c0 -9 6 -12 15 -9 8 4 15 2 15 -4 0 -6 -6 -12 -12 -14 -7
-3 -2 -7 10 -10 19 -5 22 -3 17 13 -4 11 -2 19 4 19 6 0 11 5 11 10 0 6 -13
10 -30 10 -20 0 -30 -5 -30 -15z"/>
<path d="M3840 3585 c1 -14 38 -61 43 -55 3 3 -6 19 -19 35 -13 17 -24 26 -24
20z"/>
<path d="M3575 3549 c-11 -17 1 -21 15 -4 8 9 8 15 2 15 -6 0 -14 -5 -17 -11z"/>
<path d="M3545 3521 c-3 -5 -1 -12 5 -16 5 -3 10 1 10 9 0 18 -6 21 -15 7z"/>
<path d="M3890 3510 c0 -6 7 -10 15 -10 8 0 15 2 15 4 0 2 -7 6 -15 10 -8 3
-15 1 -15 -4z"/>
<path d="M3943 3483 c9 -2 23 -2 30 0 6 3 -1 5 -18 5 -16 0 -22 -2 -12 -5z"/>
<path d="M3510 3462 c0 -5 7 -9 15 -9 8 0 15 4 15 9 0 4 -7 8 -15 8 -8 0 -15
-4 -15 -8z"/>
<path d="M3820 3300 c0 -5 5 -10 10 -10 6 0 10 5 10 10 0 6 -4 10 -10 10 -5 0
-10 -4 -10 -10z"/>
<path d="M1315 2662 c-12 -12 -3 -32 14 -32 13 0 19 6 18 18 -1 17 -20 25 -32
14z"/>
<path d="M1366 2662 c-15 -14 -4 -32 19 -32 30 0 34 25 6 33 -11 3 -22 2 -25
-1z"/>
<path d="M1420 2645 c0 -8 9 -15 20 -15 11 0 20 7 20 15 0 8 -9 15 -20 15 -11
0 -20 -7 -20 -15z"/>
<path d="M1320 2337 c0 -24 21 -37 36 -22 21 21 17 35 -11 35 -14 0 -25 -6
-25 -13z"/>
<path d="M1111 2324 c0 -11 3 -14 6 -6 3 7 2 16 -1 19 -3 4 -6 -2 -5 -13z"/>
<path d="M1162 2320 c0 -14 2 -19 5 -12 2 6 2 18 0 25 -3 6 -5 1 -5 -13z"/>
<path d="M1370 2275 c0 -8 2 -15 4 -15 2 0 6 7 10 15 3 8 1 15 -4 15 -6 0 -10
-7 -10 -15z"/>
<path d="M1285 2240 c-3 -6 1 -7 9 -4 18 7 21 14 7 14 -6 0 -13 -4 -16 -10z"/>
<path d="M3738 2083 c7 -3 16 -2 19 1 4 3 -2 6 -13 5 -11 0 -14 -3 -6 -6z"/>
<path d="M4396 1562 c-3 -5 8 -6 25 -4 16 2 29 6 29 8 0 8 -49 4 -54 -4z"/>
<path d="M4360 1521 c0 -6 17 -7 38 -4 51 8 53 13 4 13 -23 0 -42 -4 -42 -9z"/>
<path d="M4338 1453 c6 -2 18 -2 25 0 6 3 1 5 -13 5 -14 0 -19 -2 -12 -5z"/>
<path d="M4358 1433 c7 -3 16 -2 19 1 4 3 -2 6 -13 5 -11 0 -14 -3 -6 -6z"/>
<path d="M4465 1360 c-16 -7 -17 -9 -3 -9 9 -1 20 4 23 9 7 11 7 11 -20 0z"/>
<path d="M4090 1412 c0 -5 -14 -6 -31 -4 -23 3 -30 1 -25 -7 9 -14 58 -9 64 7
2 7 1 12 -2 12 -3 0 -6 -4 -6 -8z"/>
<path d="M3958 1363 c7 -3 16 -2 19 1 4 3 -2 6 -13 5 -11 0 -14 -3 -6 -6z"/>
<path d="M4003 1353 c9 -2 25 -2 35 0 9 3 1 5 -18 5 -19 0 -27 -2 -17 -5z"/>
<path d="M3990 1330 c-13 -8 -12 -10 3 -10 9 0 17 5 17 10 0 12 -1 12 -20 0z"/>
<path d="M4038 1283 c7 -3 16 -2 19 1 4 3 -2 6 -13 5 -11 0 -14 -3 -6 -6z"/>
<path d="M4106 1281 c-4 -7 -5 -15 -2 -18 9 -9 19 4 14 18 -4 11 -6 11 -12 0z"/>
<path d="M1486 1297 c3 -10 9 -15 12 -12 3 3 0 11 -7 18 -10 9 -11 8 -5 -6z"/>
<path d="M1278 1283 c6 -2 18 -2 25 0 6 3 1 5 -13 5 -14 0 -19 -2 -12 -5z"/>
<path d="M1081 1276 c12 -10 60 -16 54 -6 -3 5 -18 10 -32 10 -15 0 -24 -2
-22 -4z"/>
<path d="M1150 1273 c0 -5 5 -15 10 -23 7 -12 9 -10 7 8 -1 19 -17 33 -17 15z"/>
<path d="M1460 1270 c-9 -6 -10 -10 -3 -10 6 0 15 5 18 10 8 12 4 12 -15 0z"/>
<path d="M1100 1245 c-11 -13 -10 -14 4 -9 9 3 16 10 16 15 0 13 -6 11 -20 -6z"/>
<path d="M1193 1243 c9 -2 23 -2 30 0 6 3 -1 5 -18 5 -16 0 -22 -2 -12 -5z"/>
<path d="M1295 1210 c-3 -5 -1 -10 4 -10 6 0 11 5 11 10 0 6 -2 10 -4 10 -3 0
-8 -4 -11 -10z"/>
<path d="M1090 1200 c-13 -8 -12 -10 3 -10 9 0 17 5 17 10 0 12 -1 12 -20 0z"/>
<path d="M1181 1194 c0 -11 3 -14 6 -6 3 7 2 16 -1 19 -3 4 -6 -2 -5 -13z"/>
<path d="M1128 1193 c6 -2 18 -2 25 0 6 3 1 5 -13 5 -14 0 -19 -2 -12 -5z"/>
<path d="M1105 1170 c3 -5 8 -10 11 -10 2 0 4 5 4 10 0 6 -5 10 -11 10 -5 0
-7 -4 -4 -10z"/>
<path d="M1166 1161 c-4 -5 3 -7 14 -4 23 6 26 13 6 13 -8 0 -17 -4 -20 -9z"/>
<path d="M1151 1114 c0 -11 3 -14 6 -6 3 7 2 16 -1 19 -3 4 -6 -2 -5 -13z"/>
<path d="M1093 1077 c4 -11 1 -20 -8 -23 -21 -9 -18 -20 5 -20 15 0 19 6 15
24 -2 14 -7 27 -11 31 -4 3 -4 -2 -1 -12z"/>
<path d="M1080 871 c0 -5 5 -13 10 -16 6 -3 10 -2 10 4 0 5 -4 13 -10 16 -5 3
-10 2 -10 -4z"/>
<path d="M1252 851 c2 -7 7 -12 11 -12 12 1 9 15 -3 20 -7 2 -11 -2 -8 -8z"/>
<path d="M470 1271 c0 -5 9 -7 20 -4 11 3 20 7 20 9 0 2 -9 4 -20 4 -11 0 -20
-4 -20 -9z"/>
<path d="M638 1243 c7 -3 16 -2 19 1 4 3 -2 6 -13 5 -11 0 -14 -3 -6 -6z"/>
<path d="M440 1229 c0 -5 14 -9 32 -9 36 0 31 11 -7 15 -14 2 -25 -1 -25 -6z"/>
<path d="M510 1230 c0 -12 8 -12 35 0 18 8 17 9 -7 9 -16 1 -28 -3 -28 -9z"/>
<path d="M440 1200 c0 -12 24 -12 60 0 21 7 19 8 -17 9 -24 1 -43 -3 -43 -9z"/>
<path d="M590 1190 c0 -5 5 -10 10 -10 6 0 10 5 10 10 0 6 -4 10 -10 10 -5 0
-10 -4 -10 -10z"/>
<path d="M881 1184 c-12 -14 -11 -16 4 -12 10 1 20 9 23 16 5 17 -10 15 -27
-4z"/>
<path d="M505 1180 l-40 -7 45 -1 c25 -1 52 3 60 8 12 8 11 9 -5 8 -11 0 -38
-4 -60 -8z"/>
<path d="M445 1170 c-3 -5 -1 -10 4 -10 6 0 11 5 11 10 0 6 -2 10 -4 10 -3 0
-8 -4 -11 -10z"/>
<path d="M635 1170 c-3 -5 1 -10 10 -10 9 0 13 5 10 10 -3 6 -8 10 -10 10 -2
0 -7 -4 -10 -10z"/>
<path d="M765 1170 l-40 -7 48 -2 c26 0 47 4 47 9 0 6 -3 9 -7 9 -5 -1 -26 -5
-48 -9z"/>
<path d="M628 1143 c6 -2 10 -9 6 -14 -9 -15 2 -10 16 6 10 13 9 15 -11 14
-13 0 -18 -3 -11 -6z"/>
<path d="M568 1123 c7 -3 16 -2 19 1 4 3 -2 6 -13 5 -11 0 -14 -3 -6 -6z"/>
<path d="M488 1113 c7 -3 16 -2 19 1 4 3 -2 6 -13 5 -11 0 -14 -3 -6 -6z"/>
<path d="M667 1086 c-4 -10 -1 -13 9 -9 7 3 14 0 14 -7 0 -9 -13 -11 -49 -6
-39 5 -50 3 -55 -10 -9 -24 -8 -26 13 -14 11 5 40 10 65 10 49 0 53 5 32 33
-16 21 -22 21 -29 3z"/>
<path d="M628 1083 c7 -3 16 -2 19 1 4 3 -2 6 -13 5 -11 0 -14 -3 -6 -6z"/>
<path d="M520 1073 c0 -7 -9 -13 -20 -13 -11 0 -20 -4 -20 -10 0 -13 6 -13 31
0 14 8 19 7 19 -1 0 -7 3 -10 6 -6 3 3 1 14 -5 24 -6 10 -11 12 -11 6z"/>
<path d="M550 1049 c0 -5 5 -7 10 -4 6 3 10 8 10 11 0 2 -4 4 -10 4 -5 0 -10
-5 -10 -11z"/>
<path d="M536 1015 c-3 -9 -10 -13 -16 -10 -5 3 -10 1 -10 -4 0 -6 7 -11 15
-11 8 0 15 4 15 9 0 5 20 6 45 3 31 -3 45 -1 45 7 0 9 -10 10 -30 6 -18 -4
-36 -2 -44 4 -10 9 -15 8 -20 -4z"/>
<path d="M685 1010 c-3 -5 -1 -10 4 -10 6 0 11 5 11 10 0 6 -2 10 -4 10 -3 0
-8 -4 -11 -10z"/>
<path d="M477 999 c-9 -6 -17 -20 -17 -32 1 -22 1 -22 12 -2 6 11 16 23 22 27
17 11 2 17 -17 7z"/>
<path d="M835 1001 c-3 -5 -2 -12 3 -15 5 -3 9 1 9 9 0 17 -3 19 -12 6z"/>
<path d="M833 969 c-18 -5 -33 -14 -33 -20 0 -6 4 -8 9 -5 5 4 11 0 14 -6 2
-7 -5 -18 -16 -24 -19 -11 -19 -11 7 -11 23 0 27 3 22 21 -4 14 1 26 17 38 25
20 24 20 -20 7z"/>
<path d="M615 959 c-4 -6 -13 -8 -21 -5 -19 7 -18 -8 1 -24 8 -7 12 -16 9 -21
-3 -5 -1 -9 5 -9 5 0 12 6 14 13 4 10 6 10 6 0 1 -7 8 -13 16 -13 9 0 15 -9
16 -22 0 -22 1 -22 9 -3 8 18 9 19 9 1 1 -12 6 -16 17 -12 9 3 20 6 25 6 6 0
8 9 4 19 -4 13 0 24 12 31 17 11 16 11 -2 5 -45 -15 -61 -13 -61 9 1 14 -5 21
-16 20 -10 -1 -18 2 -18 7 0 12 -17 11 -25 -2z"/>
<path d="M740 961 c0 -6 5 -13 10 -16 6 -3 10 1 10 9 0 9 -4 16 -10 16 -5 0
-10 -4 -10 -9z"/>
<path d="M531 933 c-14 -9 -21 -11 -17 -5 5 8 -3 12 -23 12 -28 0 -31 -3 -31
-32 0 -25 3 -29 12 -20 15 15 32 16 23 2 -5 -8 39 -16 67 -11 5 0 6 -15 3 -34
-2 -20 0 -35 6 -35 6 0 9 10 8 23 -4 27 9 50 23 41 7 -4 8 -2 4 4 -4 6 -13 9
-21 5 -8 -3 -15 0 -15 6 0 6 -6 8 -14 5 -8 -3 -23 -1 -33 5 -17 10 -17 10 1
11 11 0 16 3 13 7 -4 3 1 12 11 19 25 19 11 17 -17 -3z m-41 -13 c0 -5 -5 -10
-11 -10 -5 0 -7 5 -4 10 3 6 8 10 11 10 2 0 4 -4 4 -10z"/>
<path d="M748 898 c10 -13 10 -17 0 -21 -8 -3 -6 -6 5 -6 22 -1 20 30 -3 37
-13 4 -13 3 -2 -10z"/>
<path d="M810 880 c-8 -5 -10 -10 -5 -10 6 0 17 5 25 10 8 5 11 10 5 10 -5 0
-17 -5 -25 -10z"/>
<path d="M840 855 c-14 -8 -20 -14 -14 -15 5 0 19 7 30 15 24 18 16 19 -16 0z"/>
<path d="M599 828 c4 -28 6 -29 9 -9 2 13 0 27 -5 32 -6 6 -7 -3 -4 -23z"/>
<path d="M714 829 c-5 -9 -2 -10 9 -6 11 4 14 2 10 -9 -3 -8 1 -14 10 -14 20
0 15 34 -6 38 -8 2 -19 -2 -23 -9z"/>
<path d="M625 820 c3 -5 8 -10 11 -10 2 0 4 5 4 10 0 6 -5 10 -11 10 -5 0 -7
-4 -4 -10z"/>
<path d="M690 811 c0 -10 19 -25 25 -20 1 2 -3 10 -11 17 -8 7 -14 8 -14 3z"/>
<path d="M770 800 c0 -5 -6 -10 -14 -10 -8 0 -17 -4 -20 -9 -3 -4 6 -6 19 -3
14 2 25 11 25 18 0 8 -2 14 -5 14 -3 0 -5 -4 -5 -10z"/>
<path d="M1020 750 c0 -5 5 -10 11 -10 5 0 7 5 4 10 -3 6 -8 10 -11 10 -2 0
-4 -4 -4 -10z"/>
<path d="M730 673 c8 -3 22 -11 30 -17 13 -10 13 -9 1 7 -7 9 -21 17 -30 16
-13 0 -14 -1 -1 -6z"/>
<path d="M4338 1303 c6 -2 18 -2 25 0 6 3 1 5 -13 5 -14 0 -19 -2 -12 -5z"/>
<path d="M4298 1173 c7 -3 16 -2 19 1 4 3 -2 6 -13 5 -11 0 -14 -3 -6 -6z"/>
<path d="M2049 1223 c-13 -16 -12 -17 4 -4 16 13 21 21 13 21 -2 0 -10 -8 -17
-17z"/>
<path d="M4350 1200 c0 -5 5 -10 11 -10 5 0 7 5 4 10 -3 6 -8 10 -11 10 -2 0
-4 -4 -4 -10z"/>
<path d="M2231 796 c-9 -10 -8 -15 2 -19 8 -3 13 3 14 14 2 23 -1 24 -16 5z"/>
<path d="M255 810 c-19 -8 -19 -9 2 -9 12 -1 25 4 28 9 7 12 -2 12 -30 0z"/>
<path d="M280 764 c0 -8 5 -12 10 -9 6 3 10 10 10 16 0 5 -4 9 -10 9 -5 0 -10
-7 -10 -16z"/>
<path d="M2355 740 c-3 -5 1 -10 9 -10 9 0 16 5 16 10 0 6 -4 10 -9 10 -6 0
-13 -4 -16 -10z"/>
<path d="M3365 530 c-3 -5 -1 -10 4 -10 6 0 11 5 11 10 0 6 -2 10 -4 10 -3 0
-8 -4 -11 -10z"/>
<path d="M3364 470 c0 -13 4 -16 10 -10 7 7 7 13 0 20 -6 6 -10 3 -10 -10z"/>
<path d="M3307 423 c-11 -10 -8 -35 3 -28 9 6 14 -8 11 -28 -1 -5 4 -5 10 -1
6 3 15 1 19 -6 5 -8 9 -7 13 5 4 9 3 13 -3 10 -6 -3 -10 -1 -10 5 0 6 -4 8
-10 5 -5 -3 -10 -4 -10 -1 0 2 -3 12 -7 22 -5 13 -3 15 7 9 9 -5 11 -4 6 3 -8
13 -19 15 -29 5z"/>
<path d="M2360 312 c19 -10 39 -17 43 -14 15 8 -9 23 -44 28 l-34 4 35 -18z"/>
<path d="M2340 286 c0 -2 7 -9 15 -16 12 -10 15 -10 15 4 0 9 -7 16 -15 16 -8
0 -15 -2 -15 -4z"/>
<path d="M2420 276 c7 -7 13 -7 20 0 6 6 3 10 -10 10 -13 0 -16 -4 -10 -10z"/>
<path d="M2380 260 c0 -5 7 -10 16 -10 8 0 12 5 9 10 -3 6 -10 10 -16 10 -5 0
-9 -4 -9 -10z"/>
<path d="M2550 226 c5 -13 6 -27 2 -31 -3 -3 1 -3 11 1 9 3 17 2 17 -4 0 -5
14 -12 30 -14 17 -3 30 0 30 6 0 8 3 8 8 0 11 -17 42 -13 42 5 1 13 4 12 17
-4 15 -20 15 -20 10 3 -6 24 0 27 23 12 12 -8 12 -10 1 -10 -8 0 -12 -3 -8 -6
3 -3 11 -3 17 1 8 5 8 10 0 20 -8 10 -7 14 7 18 10 3 4 5 -14 6 -17 0 -34 -5
-37 -11 -5 -10 -7 -10 -12 1 -5 11 -8 11 -15 0 -8 -12 -10 -12 -18 0 -7 11 -9
11 -13 0 -3 -10 -10 -7 -23 9 -13 14 -31 22 -52 22 -30 0 -32 -2 -23 -24z m30
-2 c0 5 7 3 15 -4 8 -7 15 -18 15 -24 0 -8 -3 -8 -8 0 -4 6 -15 13 -24 17 -10
3 -18 12 -18 19 0 9 3 8 10 -2 5 -8 10 -11 10 -6z"/>
<path d="M2457 229 c7 -7 15 -10 18 -7 3 3 -2 9 -12 12 -14 6 -15 5 -6 -5z"/>
<path d="M2505 210 c3 -5 14 -10 23 -10 15 0 15 2 2 10 -20 13 -33 13 -25 0z"/>
<path d="M2920 119 c0 -5 -6 -7 -12 -3 -7 4 -4 -2 6 -14 11 -12 20 -22 20 -22
1 0 3 11 4 25 1 14 -3 25 -8 25 -6 0 -10 -5 -10 -11z"/>
<path d="M437 277 c-3 -7 -2 -19 3 -26 5 -10 8 -9 13 2 3 7 2 19 -3 26 -5 10
-8 9 -13 -2z"/>
<path d="M290 221 c0 -5 5 -13 10 -16 6 -3 10 -2 10 4 0 5 -4 13 -10 16 -5 3
-10 2 -10 -4z"/>
<path d="M4476 4025 c4 -8 8 -15 10 -15 2 0 4 7 4 15 0 8 -4 15 -10 15 -5 0
-7 -7 -4 -15z"/>
<path d="M4455 4000 c-3 -5 -1 -10 4 -10 6 0 11 5 11 10 0 6 -2 10 -4 10 -3 0
-8 -4 -11 -10z"/>
<path d="M4434 3958 c3 -10 1 -20 -5 -23 -5 -4 -7 -11 -3 -16 3 -5 9 -7 14 -4
5 3 13 -2 18 -11 8 -15 10 -15 15 0 4 9 2 15 -5 13 -7 -1 -12 3 -13 8 0 6 -6
19 -14 30 -9 15 -11 15 -7 3z"/>
<path d="M26 3848 c10 -34 26 -50 37 -39 5 5 2 19 -8 35 -21 32 -39 34 -29 4z"/>
<path d="M0 3814 c0 -8 5 -12 10 -9 6 3 10 10 10 16 0 5 -4 9 -10 9 -5 0 -10
-7 -10 -16z"/>
<path d="M91 3654 c0 -11 3 -14 6 -6 3 7 2 16 -1 19 -3 4 -6 -2 -5 -13z"/>
<path d="M102 3610 c0 -14 2 -19 5 -12 2 6 2 18 0 25 -3 6 -5 1 -5 -13z"/>
<path d="M1715 2470 c-3 -6 1 -7 9 -4 18 7 21 14 7 14 -6 0 -13 -4 -16 -10z"/>
<path d="M1721 2328 c1 -19 2 -20 6 -5 3 13 11 17 24 14 10 -3 17 -1 13 4 -3
5 -14 9 -25 9 -13 0 -19 -6 -18 -22z"/>
<path d="M1910 2305 c0 -8 4 -15 10 -15 5 0 7 7 4 15 -4 8 -8 15 -10 15 -2 0
-4 -7 -4 -15z"/>
<path d="M1950 1402 c-26 -3 -30 -6 -17 -11 24 -9 87 -1 87 10 0 9 -8 9 -70 1z"/>
<path d="M1733 1353 c9 -2 23 -2 30 0 6 3 -1 5 -18 5 -16 0 -22 -2 -12 -5z"/>
<path d="M1728 1323 c7 -3 16 -2 19 1 4 3 -2 6 -13 5 -11 0 -14 -3 -6 -6z"/>
<path d="M1688 1293 c-15 -4 -15 -6 3 -24 16 -16 23 -18 34 -9 12 10 12 14 0
26 -7 8 -15 13 -17 13 -2 -1 -11 -3 -20 -6z"/>
<path d="M170 1243 c-19 -8 -57 -15 -85 -15 -39 0 -44 -2 -25 -8 24 -8 24 -8
2 -9 -12 -1 -21 -7 -20 -13 2 -7 -7 -14 -19 -16 -13 -2 -23 -9 -23 -17 0 -17
142 -15 148 3 2 7 -2 12 -9 12 -10 0 -10 3 0 13 10 9 15 9 18 0 2 -7 11 -9 19
-6 7 3 11 10 8 15 -5 7 5 9 25 6 17 -2 31 -1 31 4 0 5 5 6 10 3 6 -3 10 -1 10
4 0 6 -19 11 -42 11 -42 1 -43 1 -18 15 33 19 14 18 -30 -2z"/>
<path d="M0 1210 c0 -5 5 -10 11 -10 5 0 7 5 4 10 -3 6 -8 10 -11 10 -2 0 -4
-4 -4 -10z"/>
<path d="M250 1170 c0 -5 5 -10 10 -10 6 0 10 5 10 10 0 6 -4 10 -10 10 -5 0
-10 -4 -10 -10z"/>
<path d="M152 1133 c-10 -4 -10 -8 -1 -20 11 -12 8 -13 -17 -7 -16 3 -32 10
-37 13 -9 9 -97 -11 -97 -22 0 -4 30 -5 67 -2 62 6 66 5 52 -11 -13 -15 -12
-16 11 -9 30 9 51 30 42 40 -4 5 1 5 11 2 11 -4 17 -1 17 8 0 15 -22 18 -48 8z"/>
<path d="M250 1113 c0 -16 -2 -16 -11 -3 -9 13 -10 13 -6 0 6 -24 37 -25 37
-1 0 12 -4 21 -10 21 -5 0 -10 -8 -10 -17z"/>
<path d="M58 1043 c7 -3 16 -2 19 1 4 3 -2 6 -13 5 -11 0 -14 -3 -6 -6z"/>
<path d="M1596 1015 c4 -8 8 -15 10 -15 2 0 4 7 4 15 0 8 -4 15 -10 15 -5 0
-7 -7 -4 -15z"/>
<path d="M5 1000 c3 -5 10 -10 16 -10 5 0 9 5 9 10 0 6 -7 10 -16 10 -8 0 -12
-4 -9 -10z"/>
<path d="M4377 983 c-4 -3 -7 -12 -7 -20 0 -16 36 -17 46 -1 5 8 2 9 -10 5
-14 -5 -17 -3 -12 8 5 15 -5 21 -17 8z"/>
<path d="M4430 970 c0 -5 5 -10 10 -10 6 0 10 5 10 10 0 6 -4 10 -10 10 -5 0
-10 -4 -10 -10z"/>
<path d="M1591 918 c0 -18 -7 -28 -16 -28 -8 0 -15 -5 -15 -11 0 -5 5 -7 10
-4 6 3 10 -4 11 -17 1 -18 3 -16 10 11 6 18 8 43 6 55 -3 17 -5 15 -6 -6z"/>
<path d="M4384 902 c3 -5 22 -12 43 -15 21 -3 45 -8 54 -12 10 -3 19 -1 22 7
3 10 -6 14 -34 15 -21 0 -51 4 -65 7 -14 4 -23 3 -20 -2z"/>
<path d="M4427 850 c3 -11 7 -20 9 -20 2 0 4 9 4 20 0 11 -4 20 -9 20 -5 0 -7
-9 -4 -20z"/>
<path d="M5 770 c-3 -5 -1 -10 4 -10 6 0 11 5 11 10 0 6 -2 10 -4 10 -3 0 -8
-4 -11 -10z"/>
<path d="M2188 373 c6 -2 18 -2 25 0 6 3 1 5 -13 5 -14 0 -19 -2 -12 -5z"/>
<path d="M2155 360 c-4 -6 -10 -8 -14 -5 -5 2 -16 -2 -26 -9 -13 -9 -15 -15
-7 -20 7 -4 12 -2 12 4 0 7 7 10 15 6 8 -3 15 0 15 7 1 7 9 2 19 -10 14 -16
29 -23 53 -22 18 1 25 3 16 6 -9 2 -19 12 -21 21 -4 15 -5 15 -6 0 -1 -19 -16
-24 -25 -9 -4 5 0 12 6 15 7 3 4 4 -7 3 -12 -1 -19 3 -17 11 3 15 -4 16 -13 2z"/>
<path d="M2230 359 c0 -5 5 -7 10 -4 6 3 10 8 10 11 0 2 -4 4 -10 4 -5 0 -10
-5 -10 -11z"/>
<path d="M3709 198 c-1 -7 -1 -16 0 -20 0 -5 -3 -8 -9 -8 -5 0 -10 -4 -10 -8
0 -5 7 -9 15 -9 8 0 11 5 8 10 -4 6 1 8 11 4 10 -4 15 -3 11 3 -3 6 -2 10 3
10 6 0 13 -7 16 -16 3 -8 11 -12 17 -8 8 4 9 3 5 -4 -4 -6 -14 -9 -24 -6 -14
5 -14 3 2 -10 23 -18 46 -21 46 -5 0 5 -6 7 -12 3 -7 -4 -2 4 10 19 23 25 23
26 4 36 -11 6 -22 8 -25 5 -3 -3 -18 -7 -33 -9 -26 -2 -27 -2 -9 11 18 13 18
14 -3 14 -12 0 -23 -6 -23 -12z m101 -23 c0 -2 -9 -3 -19 -2 -11 0 -18 5 -15
9 4 6 34 0 34 -7z"/>
<path d="M4360 196 c0 -2 7 -6 15 -10 8 -3 15 -1 15 4 0 6 -7 10 -15 10 -8 0
-15 -2 -15 -4z"/>
<path d="M3820 155 c-14 -8 -19 -14 -12 -15 7 0 11 -4 7 -9 -6 -11 16 -18 63
-20 23 -1 31 2 26 10 -3 6 5 4 19 -5 23 -16 25 -16 29 2 3 11 16 22 28 25 16
4 20 3 13 -4 -6 -6 -9 -19 -6 -29 6 -23 60 -32 193 -29 97 1 101 2 98 23 -2
15 -9 20 -26 19 -23 -3 -31 12 -9 20 6 2 -1 3 -17 1 -16 -2 -50 -4 -77 -4 -39
0 -47 -3 -43 -15 4 -9 0 -15 -10 -15 -9 0 -16 -3 -16 -8 0 -4 -18 -6 -39 -4
-36 4 -40 7 -38 30 2 25 -1 27 -38 29 -29 2 -36 0 -25 -7 13 -8 12 -10 -3 -10
-10 0 -20 7 -23 15 -4 8 -15 15 -26 15 -10 0 -17 -4 -14 -8 2 -4 0 -14 -5 -22
-8 -12 -9 -11 -7 4 4 25 -11 29 -42 11z m30 -16 c0 -18 -2 -20 -15 -9 -13 11
-13 15 -3 21 18 12 18 12 18 -12z m55 11 c3 -5 1 -10 -4 -10 -6 0 -11 5 -11
10 0 6 2 10 4 10 3 0 8 -4 11 -10z m235 -24 c0 -3 -4 -8 -10 -11 -5 -3 -10 -1
-10 4 0 6 5 11 10 11 6 0 10 -2 10 -4z"/>
<path d="M4033 136 c18 -14 18 -14 0 -19 -12 -3 -9 -5 10 -6 31 -1 36 14 8 29
-28 14 -39 12 -18 -4z"/>
<path d="M3960 116 c0 -9 5 -16 10 -16 6 0 10 4 10 9 0 6 -4 13 -10 16 -5 3
-10 -1 -10 -9z"/>
<path d="M2443 85 c0 -8 4 -12 9 -9 5 3 6 10 3 15 -9 13 -12 11 -12 -6z"/>
<path d="M4371 74 c0 -11 3 -14 6 -6 3 7 2 16 -1 19 -3 4 -6 -2 -5 -13z"/>
<path d="M2471 66 c-21 -12 -21 -14 -6 -20 10 -3 20 -4 23 -1 3 3 -1 5 -8 5
-9 0 -7 5 6 15 24 18 17 19 -15 1z"/>
<path d="M2406 52 c-2 -4 2 -18 10 -32 14 -23 14 -23 9 -2 -4 13 -2 22 4 22 6
0 11 -5 11 -12 0 -6 3 -8 6 -5 8 7 -14 37 -27 37 -4 0 -10 -3 -13 -8z"/>
<path d="M2509 50 c0 -8 -2 -23 -4 -32 -2 -12 2 -17 16 -15 10 2 22 7 26 12 5
4 3 6 -2 2 -6 -3 -17 -1 -25 4 -11 6 -5 8 18 4 23 -4 32 -1 32 8 0 8 -9 13
-22 12 -13 -1 -26 3 -30 9 -5 7 -8 6 -9 -4z"/>
<path d="M2581 24 c0 -11 3 -14 6 -6 3 7 2 16 -1 19 -3 4 -6 -2 -5 -13z"/>
<path d="M2616 25 c-3 -8 -1 -15 4 -15 6 0 10 7 10 15 0 8 -2 15 -4 15 -2 0
-6 -7 -10 -15z"/>
<path d="M315 16 c-18 -13 -17 -13 8 -13 17 0 24 4 20 11 -3 6 0 6 8 -1 7 -7
27 -13 44 -13 l30 1 -25 14 c-32 18 -61 19 -85 1z"/>
<path d="M2640 20 c0 -5 3 -10 8 -10 4 0 48 -2 97 -5 71 -3 81 -2 45 5 -83 16
-150 21 -150 10z"/>
<path d="M3678 3 c7 -3 16 -2 19 1 4 3 -2 6 -13 5 -11 0 -14 -3 -6 -6z"/>
</g>
</svg>
